<?xml version="1.0" encoding="UTF-8" standalone="no"?>
<!DOCTYPE svg PUBLIC "-//W3C//DTD SVG 1.1//EN"
 "http://www.w3.org/Graphics/SVG/1.1/DTD/svg11.dtd">
<!-- Generated by graphviz version 2.40.1 (20161225.0304)
 -->
<!-- Title: dependencies Pages: 1 -->
<svg width="504pt" height="211pt"
 viewBox="0.00 0.00 504.00 211.00" xmlns="http://www.w3.org/2000/svg" xmlns:xlink="http://www.w3.org/1999/xlink">
<g id="graph0" class="graph" transform="scale(1 1) rotate(0) translate(4 207)">
<title>dependencies</title>
<polygon fill="#ffffff" stroke="transparent" points="-4,4 -4,-207 500,-207 500,4 -4,4"/>
<text text-anchor="start" x="227.0091" y="-42.4" font-family="sans-serif" font-weight="bold" font-size="14.00" fill="#000000">Legend</text>
<polygon fill="#ffffb3" stroke="transparent" points="14,-10 14,-30 34,-30 34,-10 14,-10"/>
<text text-anchor="start" x="37.629" y="-15.4" font-family="sans-serif" font-size="14.00" fill="#000000"> &#160;Declarations</text>
<polygon fill="#8dd3c7" stroke="transparent" points="127,-10 127,-30 147,-30 147,-10 127,-10"/>
<text text-anchor="start" x="150.7251" y="-15.4" font-family="sans-serif" font-size="14.00" fill="#000000"> &#160;Module</text>
<polygon fill="#80b1d3" stroke="transparent" points="213,-10 213,-30 233,-30 233,-10 213,-10"/>
<text text-anchor="start" x="236.7812" y="-15.4" font-family="sans-serif" font-size="14.00" fill="#000000"> &#160;Bootstrap</text>
<polygon fill="#fdb462" stroke="transparent" points="310,-10 310,-30 330,-30 330,-10 310,-10"/>
<text text-anchor="start" x="333.6732" y="-15.4" font-family="sans-serif" font-size="14.00" fill="#000000"> &#160;Providers</text>
<polygon fill="#fb8072" stroke="transparent" points="406,-10 406,-30 426,-30 426,-10 406,-10"/>
<text text-anchor="start" x="429.7258" y="-15.4" font-family="sans-serif" font-size="14.00" fill="#000000"> &#160;Exports</text>
<g id="clust1" class="cluster">
<title>cluster_AdminPageModule</title>
<polygon fill="none" stroke="#000000" stroke-dasharray="1,5" points="43,-70 43,-195 453,-195 453,-70 43,-70"/>
</g>
<g id="clust2" class="cluster">
<title>cluster_AdminPageModule_declarations</title>
<polygon fill="none" stroke="#000000" points="175,-78 175,-130 445,-130 445,-78 175,-78"/>
</g>
<g id="clust5" class="cluster">
<title>cluster_AdminPageModule_imports</title>
<polygon fill="none" stroke="#000000" points="51,-78 51,-130 167,-130 167,-78 51,-78"/>
</g>
<!-- AdminPage -->
<g id="node1" class="node">
<title>AdminPage</title>
<polygon fill="#ffffb3" stroke="#000000" points="437.0997,-122 354.9003,-122 354.9003,-86 437.0997,-86 437.0997,-122"/>
<text text-anchor="middle" x="396" y="-99.8" font-family="Times,serif" font-size="14.00" fill="#000000">AdminPage</text>
</g>
<!-- AdminPageModule -->
<g id="node3" class="node">
<title>AdminPageModule</title>
<polygon fill="#8dd3c7" stroke="#000000" points="322.6499,-187 319.6499,-191 298.6499,-191 295.6499,-187 197.3501,-187 197.3501,-151 322.6499,-151 322.6499,-187"/>
<text text-anchor="middle" x="260" y="-164.8" font-family="Times,serif" font-size="14.00" fill="#000000">AdminPageModule</text>
</g>
<!-- AdminPage&#45;&gt;AdminPageModule -->
<g id="edge1" class="edge">
<title>AdminPage&#45;&gt;AdminPageModule</title>
<path fill="none" stroke="#000000" d="M396,-122.1061C396,-141.3391 396,-169 396,-169 396,-169 332.8248,-169 332.8248,-169"/>
<polygon fill="#000000" stroke="#000000" points="332.8248,-165.5001 322.8248,-169 332.8247,-172.5001 332.8248,-165.5001"/>
</g>
<!-- DeleteOffersComponent -->
<g id="node2" class="node">
<title>DeleteOffersComponent</title>
<polygon fill="#ffffb3" stroke="#000000" points="336.6121,-122 183.3879,-122 183.3879,-86 336.6121,-86 336.6121,-122"/>
<text text-anchor="middle" x="260" y="-99.8" font-family="Times,serif" font-size="14.00" fill="#000000">DeleteOffersComponent</text>
</g>
<!-- DeleteOffersComponent&#45;&gt;AdminPageModule -->
<g id="edge2" class="edge">
<title>DeleteOffersComponent&#45;&gt;AdminPageModule</title>
<path fill="none" stroke="#000000" d="M260,-122.1061C260,-122.1061 260,-140.991 260,-140.991"/>
<polygon fill="#000000" stroke="#000000" points="256.5001,-140.9909 260,-150.991 263.5001,-140.991 256.5001,-140.9909"/>
</g>
<!-- HeaderModule -->
<g id="node4" class="node">
<title>HeaderModule</title>
<polygon fill="#8dd3c7" stroke="#000000" points="158.9608,-122 155.9608,-126 134.9608,-126 131.9608,-122 59.0392,-122 59.0392,-86 158.9608,-86 158.9608,-122"/>
<text text-anchor="middle" x="109" y="-99.8" font-family="Times,serif" font-size="14.00" fill="#000000">HeaderModule</text>
</g>
<!-- HeaderModule&#45;&gt;AdminPageModule -->
<g id="edge3" class="edge">
<title>HeaderModule&#45;&gt;AdminPageModule</title>
<path fill="none" stroke="#000000" d="M109,-122.1061C109,-141.3391 109,-169 109,-169 109,-169 187.2742,-169 187.2742,-169"/>
<polygon fill="#000000" stroke="#000000" points="187.2743,-172.5001 197.2742,-169 187.2742,-165.5001 187.2743,-172.5001"/>
</g>
</g>
</svg>
