<?xml version="1.0" encoding="UTF-8" standalone="no"?>
<!DOCTYPE svg PUBLIC "-//W3C//DTD SVG 1.1//EN"
 "http://www.w3.org/Graphics/SVG/1.1/DTD/svg11.dtd">
<!-- Generated by graphviz version 2.40.1 (20161225.0304)
 -->
<!-- Title: dependencies Pages: 1 -->
<svg width="565pt" height="284pt"
 viewBox="0.00 0.00 565.00 284.00" xmlns="http://www.w3.org/2000/svg" xmlns:xlink="http://www.w3.org/1999/xlink">
<g id="graph0" class="graph" transform="scale(1 1) rotate(0) translate(4 280)">
<title>dependencies</title>
<polygon fill="#ffffff" stroke="transparent" points="-4,4 -4,-280 561,-280 561,4 -4,4"/>
<text text-anchor="start" x="257.5091" y="-42.4" font-family="sans-serif" font-weight="bold" font-size="14.00" fill="#000000">Legend</text>
<polygon fill="#ffffb3" stroke="transparent" points="44.5,-10 44.5,-30 64.5,-30 64.5,-10 44.5,-10"/>
<text text-anchor="start" x="68.129" y="-15.4" font-family="sans-serif" font-size="14.00" fill="#000000"> &#160;Declarations</text>
<polygon fill="#8dd3c7" stroke="transparent" points="157.5,-10 157.5,-30 177.5,-30 177.5,-10 157.5,-10"/>
<text text-anchor="start" x="181.2251" y="-15.4" font-family="sans-serif" font-size="14.00" fill="#000000"> &#160;Module</text>
<polygon fill="#80b1d3" stroke="transparent" points="243.5,-10 243.5,-30 263.5,-30 263.5,-10 243.5,-10"/>
<text text-anchor="start" x="267.2812" y="-15.4" font-family="sans-serif" font-size="14.00" fill="#000000"> &#160;Bootstrap</text>
<polygon fill="#fdb462" stroke="transparent" points="340.5,-10 340.5,-30 360.5,-30 360.5,-10 340.5,-10"/>
<text text-anchor="start" x="364.1732" y="-15.4" font-family="sans-serif" font-size="14.00" fill="#000000"> &#160;Providers</text>
<polygon fill="#fb8072" stroke="transparent" points="436.5,-10 436.5,-30 456.5,-30 456.5,-10 436.5,-10"/>
<text text-anchor="start" x="460.2258" y="-15.4" font-family="sans-serif" font-size="14.00" fill="#000000"> &#160;Exports</text>
<g id="clust1" class="cluster">
<title>cluster_SharedModule</title>
<polygon fill="none" stroke="#000000" stroke-dasharray="1,5" points="8,-70 8,-268 549,-268 549,-70 8,-70"/>
</g>
<g id="clust2" class="cluster">
<title>cluster_SharedModule_declarations</title>
<polygon fill="none" stroke="#000000" points="22,-78 22,-130 536,-130 536,-78 22,-78"/>
</g>
<g id="clust7" class="cluster">
<title>cluster_SharedModule_exports</title>
<polygon fill="none" stroke="#000000" points="16,-208 16,-260 541,-260 541,-208 16,-208"/>
</g>
<!-- ImagePickerComponent -->
<g id="node1" class="node">
<title>ImagePickerComponent</title>
<polygon fill="#ffffb3" stroke="#000000" points="528.0758,-122 375.9242,-122 375.9242,-86 528.0758,-86 528.0758,-122"/>
<text text-anchor="middle" x="452" y="-99.8" font-family="Times,serif" font-size="14.00" fill="#000000">ImagePickerComponent</text>
</g>
<!-- SharedModule -->
<g id="node4" class="node">
<title>SharedModule</title>
<polygon fill="#8dd3c7" stroke="#000000" points="311.4231,-187 308.4231,-191 287.4231,-191 284.4231,-187 212.5769,-187 212.5769,-151 311.4231,-151 311.4231,-187"/>
<text text-anchor="middle" x="262" y="-164.8" font-family="Times,serif" font-size="14.00" fill="#000000">SharedModule</text>
</g>
<!-- ImagePickerComponent&#45;&gt;SharedModule -->
<g id="edge1" class="edge">
<title>ImagePickerComponent&#45;&gt;SharedModule</title>
<path fill="none" stroke="#000000" d="M477.7626,-122.0225C477.7626,-139.3734 477.7626,-163 477.7626,-163 477.7626,-163 321.2299,-163 321.2299,-163"/>
<polygon fill="#000000" stroke="#000000" points="321.2299,-159.5001 311.2299,-163 321.2298,-166.5001 321.2299,-159.5001"/>
</g>
<!-- ProfileInformationsComponent -->
<g id="node2" class="node">
<title>ProfileInformationsComponent</title>
<polygon fill="#ffffb3" stroke="#000000" points="357.745,-122 166.255,-122 166.255,-86 357.745,-86 357.745,-122"/>
<text text-anchor="middle" x="262" y="-99.8" font-family="Times,serif" font-size="14.00" fill="#000000">ProfileInformationsComponent</text>
</g>
<!-- ProfileInformationsComponent&#45;&gt;SharedModule -->
<g id="edge2" class="edge">
<title>ProfileInformationsComponent&#45;&gt;SharedModule</title>
<path fill="none" stroke="#000000" d="M262,-122.1061C262,-122.1061 262,-140.991 262,-140.991"/>
<polygon fill="#000000" stroke="#000000" points="258.5001,-140.9909 262,-150.991 265.5001,-140.991 258.5001,-140.9909"/>
</g>
<!-- RatingComponent -->
<g id="node3" class="node">
<title>RatingComponent</title>
<polygon fill="#ffffb3" stroke="#000000" points="148.1653,-122 29.8347,-122 29.8347,-86 148.1653,-86 148.1653,-122"/>
<text text-anchor="middle" x="89" y="-99.8" font-family="Times,serif" font-size="14.00" fill="#000000">RatingComponent</text>
</g>
<!-- RatingComponent&#45;&gt;SharedModule -->
<g id="edge3" class="edge">
<title>RatingComponent&#45;&gt;SharedModule</title>
<path fill="none" stroke="#000000" d="M107.2775,-122.0225C107.2775,-139.3734 107.2775,-163 107.2775,-163 107.2775,-163 202.6194,-163 202.6194,-163"/>
<polygon fill="#000000" stroke="#000000" points="202.6195,-166.5001 212.6194,-163 202.6194,-159.5001 202.6195,-166.5001"/>
</g>
<!-- ImagePickerComponent  -->
<g id="node5" class="node">
<title>ImagePickerComponent </title>
<polygon fill="#fb8072" stroke="#000000" points="532.5764,-252 377.4236,-252 377.4236,-216 532.5764,-216 532.5764,-252"/>
<text text-anchor="middle" x="455" y="-229.8" font-family="Times,serif" font-size="14.00" fill="#000000">ImagePickerComponent </text>
</g>
<!-- SharedModule&#45;&gt;ImagePickerComponent  -->
<g id="edge4" class="edge">
<title>SharedModule&#45;&gt;ImagePickerComponent </title>
<path fill="none" stroke="#000000" stroke-dasharray="5,2" d="M311.6517,-175C360.397,-175 427.4874,-175 427.4874,-175 427.4874,-175 427.4874,-205.9775 427.4874,-205.9775"/>
<polygon fill="#000000" stroke="#000000" points="423.9875,-205.9774 427.4874,-215.9775 430.9875,-205.9775 423.9875,-205.9774"/>
</g>
<!-- ProfileInformationsComponent  -->
<g id="node6" class="node">
<title>ProfileInformationsComponent </title>
<polygon fill="#fb8072" stroke="#000000" points="359.745,-252 164.255,-252 164.255,-216 359.745,-216 359.745,-252"/>
<text text-anchor="middle" x="262" y="-229.8" font-family="Times,serif" font-size="14.00" fill="#000000">ProfileInformationsComponent </text>
</g>
<!-- SharedModule&#45;&gt;ProfileInformationsComponent  -->
<g id="edge5" class="edge">
<title>SharedModule&#45;&gt;ProfileInformationsComponent </title>
<path fill="none" stroke="#000000" stroke-dasharray="5,2" d="M262,-187.1061C262,-187.1061 262,-205.991 262,-205.991"/>
<polygon fill="#000000" stroke="#000000" points="258.5001,-205.9909 262,-215.991 265.5001,-205.991 258.5001,-205.9909"/>
</g>
<!-- RatingComponent  -->
<g id="node7" class="node">
<title>RatingComponent </title>
<polygon fill="#fb8072" stroke="#000000" points="146.1649,-252 23.8351,-252 23.8351,-216 146.1649,-216 146.1649,-252"/>
<text text-anchor="middle" x="85" y="-229.8" font-family="Times,serif" font-size="14.00" fill="#000000">RatingComponent </text>
</g>
<!-- SharedModule&#45;&gt;RatingComponent  -->
<g id="edge6" class="edge">
<title>SharedModule&#45;&gt;RatingComponent </title>
<path fill="none" stroke="#000000" stroke-dasharray="5,2" d="M212.6641,-175C155.3268,-175 68.4725,-175 68.4725,-175 68.4725,-175 68.4725,-205.9775 68.4725,-205.9775"/>
<polygon fill="#000000" stroke="#000000" points="64.9726,-205.9774 68.4725,-215.9775 71.9726,-205.9775 64.9726,-205.9774"/>
</g>
</g>
</svg>
