<?xml version="1.0" encoding="UTF-8" standalone="no"?>
<!DOCTYPE svg PUBLIC "-//W3C//DTD SVG 1.1//EN"
 "http://www.w3.org/Graphics/SVG/1.1/DTD/svg11.dtd">
<!-- Generated by graphviz version 2.40.1 (20161225.0304)
 -->
<!-- Title: dependencies Pages: 1 -->
<svg width="670pt" height="284pt"
 viewBox="0.00 0.00 670.00 284.00" xmlns="http://www.w3.org/2000/svg" xmlns:xlink="http://www.w3.org/1999/xlink">
<g id="graph0" class="graph" transform="scale(1 1) rotate(0) translate(4 280)">
<title>dependencies</title>
<polygon fill="#ffffff" stroke="transparent" points="-4,4 -4,-280 666,-280 666,4 -4,4"/>
<text text-anchor="start" x="310.0091" y="-42.4" font-family="sans-serif" font-weight="bold" font-size="14.00" fill="#000000">Legend</text>
<polygon fill="#ffffb3" stroke="transparent" points="97,-10 97,-30 117,-30 117,-10 97,-10"/>
<text text-anchor="start" x="120.629" y="-15.4" font-family="sans-serif" font-size="14.00" fill="#000000"> &#160;Declarations</text>
<polygon fill="#8dd3c7" stroke="transparent" points="210,-10 210,-30 230,-30 230,-10 210,-10"/>
<text text-anchor="start" x="233.7251" y="-15.4" font-family="sans-serif" font-size="14.00" fill="#000000"> &#160;Module</text>
<polygon fill="#80b1d3" stroke="transparent" points="296,-10 296,-30 316,-30 316,-10 296,-10"/>
<text text-anchor="start" x="319.7812" y="-15.4" font-family="sans-serif" font-size="14.00" fill="#000000"> &#160;Bootstrap</text>
<polygon fill="#fdb462" stroke="transparent" points="393,-10 393,-30 413,-30 413,-10 393,-10"/>
<text text-anchor="start" x="416.6732" y="-15.4" font-family="sans-serif" font-size="14.00" fill="#000000"> &#160;Providers</text>
<polygon fill="#fb8072" stroke="transparent" points="489,-10 489,-30 509,-30 509,-10 489,-10"/>
<text text-anchor="start" x="512.7258" y="-15.4" font-family="sans-serif" font-size="14.00" fill="#000000"> &#160;Exports</text>
<g id="clust1" class="cluster">
<title>cluster_AppModule</title>
<polygon fill="none" stroke="#000000" stroke-dasharray="1,5" points="8,-70 8,-268 654,-268 654,-70 8,-70"/>
</g>
<g id="clust2" class="cluster">
<title>cluster_AppModule_declarations</title>
<polygon fill="none" stroke="#000000" points="168,-78 168,-130 646,-130 646,-78 168,-78"/>
</g>
<g id="clust6" class="cluster">
<title>cluster_AppModule_imports</title>
<polygon fill="none" stroke="#000000" points="16,-78 16,-130 160,-130 160,-78 16,-78"/>
</g>
<g id="clust8" class="cluster">
<title>cluster_AppModule_bootstrap</title>
<polygon fill="none" stroke="#000000" points="286,-208 286,-260 410,-260 410,-208 286,-208"/>
</g>
<!-- AppComponent -->
<g id="node1" class="node">
<title>AppComponent</title>
<polygon fill="#ffffb3" stroke="#000000" points="637.9399,-122 532.0601,-122 532.0601,-86 637.9399,-86 637.9399,-122"/>
<text text-anchor="middle" x="585" y="-99.8" font-family="Times,serif" font-size="14.00" fill="#000000">AppComponent</text>
</g>
<!-- AppModule -->
<g id="node4" class="node">
<title>AppModule</title>
<polygon fill="#8dd3c7" stroke="#000000" points="389.6571,-187 386.6571,-191 365.6571,-191 362.6571,-187 306.3429,-187 306.3429,-151 389.6571,-151 389.6571,-187"/>
<text text-anchor="middle" x="348" y="-164.8" font-family="Times,serif" font-size="14.00" fill="#000000">AppModule</text>
</g>
<!-- AppComponent&#45;&gt;AppModule -->
<g id="edge1" class="edge">
<title>AppComponent&#45;&gt;AppModule</title>
<path fill="none" stroke="#000000" d="M585,-122.1061C585,-141.3391 585,-169 585,-169 585,-169 399.8253,-169 399.8253,-169"/>
<polygon fill="#000000" stroke="#000000" points="399.8253,-165.5001 389.8253,-169 399.8253,-172.5001 399.8253,-165.5001"/>
</g>
<!-- NotificationsComponent -->
<g id="node2" class="node">
<title>NotificationsComponent</title>
<polygon fill="#ffffb3" stroke="#000000" points="514.427,-122 359.573,-122 359.573,-86 514.427,-86 514.427,-122"/>
<text text-anchor="middle" x="437" y="-99.8" font-family="Times,serif" font-size="14.00" fill="#000000">NotificationsComponent</text>
</g>
<!-- NotificationsComponent&#45;&gt;AppModule -->
<g id="edge2" class="edge">
<title>NotificationsComponent&#45;&gt;AppModule</title>
<path fill="none" stroke="#000000" d="M374.8075,-122.1061C374.8075,-122.1061 374.8075,-140.991 374.8075,-140.991"/>
<polygon fill="#000000" stroke="#000000" points="371.3076,-140.9909 374.8075,-150.991 378.3076,-140.991 371.3076,-140.9909"/>
</g>
<!-- ProfilePopoverComponent -->
<g id="node3" class="node">
<title>ProfilePopoverComponent</title>
<polygon fill="#ffffb3" stroke="#000000" points="342.0898,-122 175.9102,-122 175.9102,-86 342.0898,-86 342.0898,-122"/>
<text text-anchor="middle" x="259" y="-99.8" font-family="Times,serif" font-size="14.00" fill="#000000">ProfilePopoverComponent</text>
</g>
<!-- ProfilePopoverComponent&#45;&gt;AppModule -->
<g id="edge3" class="edge">
<title>ProfilePopoverComponent&#45;&gt;AppModule</title>
<path fill="none" stroke="#000000" d="M324.1083,-122.1061C324.1083,-122.1061 324.1083,-140.991 324.1083,-140.991"/>
<polygon fill="#000000" stroke="#000000" points="320.6084,-140.9909 324.1083,-150.991 327.6084,-140.991 320.6084,-140.9909"/>
</g>
<!-- AppComponent  -->
<g id="node6" class="node">
<title>AppComponent </title>
<polygon fill="#80b1d3" stroke="#000000" points="402.439,-252 293.561,-252 293.561,-216 402.439,-216 402.439,-252"/>
<text text-anchor="middle" x="348" y="-229.8" font-family="Times,serif" font-size="14.00" fill="#000000">AppComponent </text>
</g>
<!-- AppModule&#45;&gt;AppComponent  -->
<g id="edge5" class="edge">
<title>AppModule&#45;&gt;AppComponent </title>
<path fill="none" stroke="#000000" stroke-dasharray="1,5" d="M348,-187.1061C348,-187.1061 348,-205.991 348,-205.991"/>
<polygon fill="#000000" stroke="#000000" points="344.5001,-205.9909 348,-215.991 351.5001,-205.991 344.5001,-205.9909"/>
</g>
<!-- AppRoutingModule -->
<g id="node5" class="node">
<title>AppRoutingModule</title>
<polygon fill="#8dd3c7" stroke="#000000" points="152.2744,-122 149.2744,-126 128.2744,-126 125.2744,-122 23.7256,-122 23.7256,-86 152.2744,-86 152.2744,-122"/>
<text text-anchor="middle" x="88" y="-99.8" font-family="Times,serif" font-size="14.00" fill="#000000">AppRoutingModule</text>
</g>
<!-- AppRoutingModule&#45;&gt;AppModule -->
<g id="edge4" class="edge">
<title>AppRoutingModule&#45;&gt;AppModule</title>
<path fill="none" stroke="#000000" d="M88,-122.1061C88,-141.3391 88,-169 88,-169 88,-169 296.2265,-169 296.2265,-169"/>
<polygon fill="#000000" stroke="#000000" points="296.2265,-172.5001 306.2265,-169 296.2265,-165.5001 296.2265,-172.5001"/>
</g>
</g>
</svg>
