<?xml version="1.0" encoding="UTF-8" standalone="no"?>
<!DOCTYPE svg PUBLIC "-//W3C//DTD SVG 1.1//EN"
 "http://www.w3.org/Graphics/SVG/1.1/DTD/svg11.dtd">
<!-- Generated by graphviz version 2.40.1 (20161225.0304)
 -->
<!-- Title: dependencies Pages: 1 -->
<svg width="504pt" height="211pt"
 viewBox="0.00 0.00 504.00 211.00" xmlns="http://www.w3.org/2000/svg" xmlns:xlink="http://www.w3.org/1999/xlink">
<g id="graph0" class="graph" transform="scale(1 1) rotate(0) translate(4 207)">
<title>dependencies</title>
<polygon fill="#ffffff" stroke="transparent" points="-4,4 -4,-207 500,-207 500,4 -4,4"/>
<text text-anchor="start" x="227.0091" y="-42.4" font-family="sans-serif" font-weight="bold" font-size="14.00" fill="#000000">Legend</text>
<polygon fill="#ffffb3" stroke="transparent" points="14,-10 14,-30 34,-30 34,-10 14,-10"/>
<text text-anchor="start" x="37.629" y="-15.4" font-family="sans-serif" font-size="14.00" fill="#000000"> &#160;Declarations</text>
<polygon fill="#8dd3c7" stroke="transparent" points="127,-10 127,-30 147,-30 147,-10 127,-10"/>
<text text-anchor="start" x="150.7251" y="-15.4" font-family="sans-serif" font-size="14.00" fill="#000000"> &#160;Module</text>
<polygon fill="#80b1d3" stroke="transparent" points="213,-10 213,-30 233,-30 233,-10 213,-10"/>
<text text-anchor="start" x="236.7812" y="-15.4" font-family="sans-serif" font-size="14.00" fill="#000000"> &#160;Bootstrap</text>
<polygon fill="#fdb462" stroke="transparent" points="310,-10 310,-30 330,-30 330,-10 310,-10"/>
<text text-anchor="start" x="333.6732" y="-15.4" font-family="sans-serif" font-size="14.00" fill="#000000"> &#160;Providers</text>
<polygon fill="#fb8072" stroke="transparent" points="406,-10 406,-30 426,-30 426,-10 406,-10"/>
<text text-anchor="start" x="429.7258" y="-15.4" font-family="sans-serif" font-size="14.00" fill="#000000"> &#160;Exports</text>
<g id="clust1" class="cluster">
<title>cluster_RegisteredPageModule</title>
<polygon fill="none" stroke="#000000" stroke-dasharray="1,5" points="65,-70 65,-195 431,-195 431,-70 65,-70"/>
</g>
<g id="clust2" class="cluster">
<title>cluster_RegisteredPageModule_declarations</title>
<polygon fill="none" stroke="#000000" points="303,-78 303,-130 423,-130 423,-78 303,-78"/>
</g>
<g id="clust4" class="cluster">
<title>cluster_RegisteredPageModule_imports</title>
<polygon fill="none" stroke="#000000" points="73,-78 73,-130 295,-130 295,-78 73,-78"/>
</g>
<!-- RegisteredPage -->
<g id="node1" class="node">
<title>RegisteredPage</title>
<polygon fill="#ffffb3" stroke="#000000" points="414.5786,-122 311.4214,-122 311.4214,-86 414.5786,-86 414.5786,-122"/>
<text text-anchor="middle" x="363" y="-99.8" font-family="Times,serif" font-size="14.00" fill="#000000">RegisteredPage</text>
</g>
<!-- RegisteredPageModule -->
<g id="node2" class="node">
<title>RegisteredPageModule</title>
<polygon fill="#8dd3c7" stroke="#000000" points="316.1289,-187 313.1289,-191 292.1289,-191 289.1289,-187 169.8711,-187 169.8711,-151 316.1289,-151 316.1289,-187"/>
<text text-anchor="middle" x="243" y="-164.8" font-family="Times,serif" font-size="14.00" fill="#000000">RegisteredPageModule</text>
</g>
<!-- RegisteredPage&#45;&gt;RegisteredPageModule -->
<g id="edge1" class="edge">
<title>RegisteredPage&#45;&gt;RegisteredPageModule</title>
<path fill="none" stroke="#000000" d="M311.4344,-104C304.1703,-104 299.1171,-104 299.1171,-104 299.1171,-104 299.1171,-140.8939 299.1171,-140.8939"/>
<polygon fill="#000000" stroke="#000000" points="295.6172,-140.8938 299.1171,-150.8939 302.6172,-140.8939 295.6172,-140.8938"/>
</g>
<!-- AuthModule -->
<g id="node3" class="node">
<title>AuthModule</title>
<polygon fill="#8dd3c7" stroke="#000000" points="286.5482,-122 283.5482,-126 262.5482,-126 259.5482,-122 199.4518,-122 199.4518,-86 286.5482,-86 286.5482,-122"/>
<text text-anchor="middle" x="243" y="-99.8" font-family="Times,serif" font-size="14.00" fill="#000000">AuthModule</text>
</g>
<!-- AuthModule&#45;&gt;RegisteredPageModule -->
<g id="edge2" class="edge">
<title>AuthModule&#45;&gt;RegisteredPageModule</title>
<path fill="none" stroke="#000000" d="M243,-122.1061C243,-122.1061 243,-140.991 243,-140.991"/>
<polygon fill="#000000" stroke="#000000" points="239.5001,-140.9909 243,-150.991 246.5001,-140.991 239.5001,-140.9909"/>
</g>
<!-- HeaderModule -->
<g id="node4" class="node">
<title>HeaderModule</title>
<polygon fill="#8dd3c7" stroke="#000000" points="180.9608,-122 177.9608,-126 156.9608,-126 153.9608,-122 81.0392,-122 81.0392,-86 180.9608,-86 180.9608,-122"/>
<text text-anchor="middle" x="131" y="-99.8" font-family="Times,serif" font-size="14.00" fill="#000000">HeaderModule</text>
</g>
<!-- HeaderModule&#45;&gt;RegisteredPageModule -->
<g id="edge3" class="edge">
<title>HeaderModule&#45;&gt;RegisteredPageModule</title>
<path fill="none" stroke="#000000" d="M175.3331,-122.1061C175.3331,-122.1061 175.3331,-140.991 175.3331,-140.991"/>
<polygon fill="#000000" stroke="#000000" points="171.8332,-140.9909 175.3331,-150.991 178.8332,-140.991 171.8332,-140.9909"/>
</g>
</g>
</svg>
