<?xml version="1.0" encoding="UTF-8" standalone="no"?>
<!DOCTYPE svg PUBLIC "-//W3C//DTD SVG 1.1//EN"
 "http://www.w3.org/Graphics/SVG/1.1/DTD/svg11.dtd">
<!-- Generated by graphviz version 2.40.1 (20161225.0304)
 -->
<!-- Title: dependencies Pages: 1 -->
<svg width="732pt" height="211pt"
 viewBox="0.00 0.00 732.00 211.00" xmlns="http://www.w3.org/2000/svg" xmlns:xlink="http://www.w3.org/1999/xlink">
<g id="graph0" class="graph" transform="scale(1 1) rotate(0) translate(4 207)">
<title>dependencies</title>
<polygon fill="#ffffff" stroke="transparent" points="-4,4 -4,-207 728,-207 728,4 -4,4"/>
<text text-anchor="start" x="341.0091" y="-42.4" font-family="sans-serif" font-weight="bold" font-size="14.00" fill="#000000">Legend</text>
<polygon fill="#ffffb3" stroke="transparent" points="128,-10 128,-30 148,-30 148,-10 128,-10"/>
<text text-anchor="start" x="151.629" y="-15.4" font-family="sans-serif" font-size="14.00" fill="#000000"> &#160;Declarations</text>
<polygon fill="#8dd3c7" stroke="transparent" points="241,-10 241,-30 261,-30 261,-10 241,-10"/>
<text text-anchor="start" x="264.7251" y="-15.4" font-family="sans-serif" font-size="14.00" fill="#000000"> &#160;Module</text>
<polygon fill="#80b1d3" stroke="transparent" points="327,-10 327,-30 347,-30 347,-10 327,-10"/>
<text text-anchor="start" x="350.7812" y="-15.4" font-family="sans-serif" font-size="14.00" fill="#000000"> &#160;Bootstrap</text>
<polygon fill="#fdb462" stroke="transparent" points="424,-10 424,-30 444,-30 444,-10 424,-10"/>
<text text-anchor="start" x="447.6732" y="-15.4" font-family="sans-serif" font-size="14.00" fill="#000000"> &#160;Providers</text>
<polygon fill="#fb8072" stroke="transparent" points="520,-10 520,-30 540,-30 540,-10 520,-10"/>
<text text-anchor="start" x="543.7258" y="-15.4" font-family="sans-serif" font-size="14.00" fill="#000000"> &#160;Exports</text>
<g id="clust1" class="cluster">
<title>cluster_SubcategoryPageModule</title>
<polygon fill="none" stroke="#000000" stroke-dasharray="1,5" points="8,-70 8,-195 716,-195 716,-70 8,-70"/>
</g>
<g id="clust2" class="cluster">
<title>cluster_SubcategoryPageModule_declarations</title>
<polygon fill="none" stroke="#000000" points="384,-78 384,-130 708,-130 708,-78 384,-78"/>
</g>
<g id="clust5" class="cluster">
<title>cluster_SubcategoryPageModule_imports</title>
<polygon fill="none" stroke="#000000" points="16,-78 16,-130 376,-130 376,-78 16,-78"/>
</g>
<!-- SubcategoryItemComponent -->
<g id="node1" class="node">
<title>SubcategoryItemComponent</title>
<polygon fill="#ffffb3" stroke="#000000" points="700.4664,-122 523.5336,-122 523.5336,-86 700.4664,-86 700.4664,-122"/>
<text text-anchor="middle" x="612" y="-99.8" font-family="Times,serif" font-size="14.00" fill="#000000">SubcategoryItemComponent</text>
</g>
<!-- SubcategoryPageModule -->
<g id="node3" class="node">
<title>SubcategoryPageModule</title>
<polygon fill="#8dd3c7" stroke="#000000" points="391.2394,-187 388.2394,-191 367.2394,-191 364.2394,-187 234.7606,-187 234.7606,-151 391.2394,-151 391.2394,-187"/>
<text text-anchor="middle" x="313" y="-164.8" font-family="Times,serif" font-size="14.00" fill="#000000">SubcategoryPageModule</text>
</g>
<!-- SubcategoryItemComponent&#45;&gt;SubcategoryPageModule -->
<g id="edge1" class="edge">
<title>SubcategoryItemComponent&#45;&gt;SubcategoryPageModule</title>
<path fill="none" stroke="#000000" d="M612,-122.1061C612,-141.3391 612,-169 612,-169 612,-169 401.5587,-169 401.5587,-169"/>
<polygon fill="#000000" stroke="#000000" points="401.5588,-165.5001 391.5587,-169 401.5587,-172.5001 401.5588,-165.5001"/>
</g>
<!-- SubcategoryPage -->
<g id="node2" class="node">
<title>SubcategoryPage</title>
<polygon fill="#ffffb3" stroke="#000000" points="505.6896,-122 392.3104,-122 392.3104,-86 505.6896,-86 505.6896,-122"/>
<text text-anchor="middle" x="449" y="-99.8" font-family="Times,serif" font-size="14.00" fill="#000000">SubcategoryPage</text>
</g>
<!-- SubcategoryPage&#45;&gt;SubcategoryPageModule -->
<g id="edge2" class="edge">
<title>SubcategoryPage&#45;&gt;SubcategoryPageModule</title>
<path fill="none" stroke="#000000" d="M392.2577,-104C384.7081,-104 379.5127,-104 379.5127,-104 379.5127,-104 379.5127,-140.8939 379.5127,-140.8939"/>
<polygon fill="#000000" stroke="#000000" points="376.0127,-140.8938 379.5127,-150.8939 383.0127,-140.8939 376.0127,-140.8938"/>
</g>
<!-- CarouselModule -->
<g id="node4" class="node">
<title>CarouselModule</title>
<polygon fill="#8dd3c7" stroke="#000000" points="367.8118,-122 364.8118,-126 343.8118,-126 340.8118,-122 258.1882,-122 258.1882,-86 367.8118,-86 367.8118,-122"/>
<text text-anchor="middle" x="313" y="-99.8" font-family="Times,serif" font-size="14.00" fill="#000000">CarouselModule</text>
</g>
<!-- CarouselModule&#45;&gt;SubcategoryPageModule -->
<g id="edge3" class="edge">
<title>CarouselModule&#45;&gt;SubcategoryPageModule</title>
<path fill="none" stroke="#000000" d="M313,-122.1061C313,-122.1061 313,-140.991 313,-140.991"/>
<polygon fill="#000000" stroke="#000000" points="309.5001,-140.9909 313,-150.991 316.5001,-140.991 309.5001,-140.9909"/>
</g>
<!-- HeaderModule -->
<g id="node5" class="node">
<title>HeaderModule</title>
<polygon fill="#8dd3c7" stroke="#000000" points="239.9608,-122 236.9608,-126 215.9608,-126 212.9608,-122 140.0392,-122 140.0392,-86 239.9608,-86 239.9608,-122"/>
<text text-anchor="middle" x="190" y="-99.8" font-family="Times,serif" font-size="14.00" fill="#000000">HeaderModule</text>
</g>
<!-- HeaderModule&#45;&gt;SubcategoryPageModule -->
<g id="edge4" class="edge">
<title>HeaderModule&#45;&gt;SubcategoryPageModule</title>
<path fill="none" stroke="#000000" d="M240.1769,-104C245.5794,-104 249.1624,-104 249.1624,-104 249.1624,-104 249.1624,-140.8939 249.1624,-140.8939"/>
<polygon fill="#000000" stroke="#000000" points="245.6624,-140.8938 249.1624,-150.8939 252.6624,-140.8939 245.6624,-140.8938"/>
</g>
<!-- SharedModule -->
<g id="node6" class="node">
<title>SharedModule</title>
<polygon fill="#8dd3c7" stroke="#000000" points="122.4231,-122 119.4231,-126 98.4231,-126 95.4231,-122 23.5769,-122 23.5769,-86 122.4231,-86 122.4231,-122"/>
<text text-anchor="middle" x="73" y="-99.8" font-family="Times,serif" font-size="14.00" fill="#000000">SharedModule</text>
</g>
<!-- SharedModule&#45;&gt;SubcategoryPageModule -->
<g id="edge5" class="edge">
<title>SharedModule&#45;&gt;SubcategoryPageModule</title>
<path fill="none" stroke="#000000" d="M73,-122.1061C73,-141.3391 73,-169 73,-169 73,-169 224.7471,-169 224.7471,-169"/>
<polygon fill="#000000" stroke="#000000" points="224.7471,-172.5001 234.7471,-169 224.7471,-165.5001 224.7471,-172.5001"/>
</g>
</g>
</svg>
