<?xml version="1.0" encoding="UTF-8" standalone="no"?>
<!DOCTYPE svg PUBLIC "-//W3C//DTD SVG 1.1//EN"
 "http://www.w3.org/Graphics/SVG/1.1/DTD/svg11.dtd">
<!-- Generated by graphviz version 2.40.1 (20161225.0304)
 -->
<!-- Title: dependencies Pages: 1 -->
<svg width="862pt" height="211pt"
 viewBox="0.00 0.00 862.00 211.00" xmlns="http://www.w3.org/2000/svg" xmlns:xlink="http://www.w3.org/1999/xlink">
<g id="graph0" class="graph" transform="scale(1 1) rotate(0) translate(4 207)">
<title>dependencies</title>
<polygon fill="#ffffff" stroke="transparent" points="-4,4 -4,-207 858,-207 858,4 -4,4"/>
<text text-anchor="start" x="406.0091" y="-42.4" font-family="sans-serif" font-weight="bold" font-size="14.00" fill="#000000">Legend</text>
<polygon fill="#ffffb3" stroke="transparent" points="193,-10 193,-30 213,-30 213,-10 193,-10"/>
<text text-anchor="start" x="216.629" y="-15.4" font-family="sans-serif" font-size="14.00" fill="#000000"> &#160;Declarations</text>
<polygon fill="#8dd3c7" stroke="transparent" points="306,-10 306,-30 326,-30 326,-10 306,-10"/>
<text text-anchor="start" x="329.7251" y="-15.4" font-family="sans-serif" font-size="14.00" fill="#000000"> &#160;Module</text>
<polygon fill="#80b1d3" stroke="transparent" points="392,-10 392,-30 412,-30 412,-10 392,-10"/>
<text text-anchor="start" x="415.7812" y="-15.4" font-family="sans-serif" font-size="14.00" fill="#000000"> &#160;Bootstrap</text>
<polygon fill="#fdb462" stroke="transparent" points="489,-10 489,-30 509,-30 509,-10 489,-10"/>
<text text-anchor="start" x="512.6732" y="-15.4" font-family="sans-serif" font-size="14.00" fill="#000000"> &#160;Providers</text>
<polygon fill="#fb8072" stroke="transparent" points="585,-10 585,-30 605,-30 605,-10 585,-10"/>
<text text-anchor="start" x="608.7258" y="-15.4" font-family="sans-serif" font-size="14.00" fill="#000000"> &#160;Exports</text>
<g id="clust1" class="cluster">
<title>cluster_SubcategoryPageModule</title>
<polygon fill="none" stroke="#000000" stroke-dasharray="1,5" points="8,-70 8,-195 846,-195 846,-70 8,-70"/>
</g>
<g id="clust2" class="cluster">
<title>cluster_SubcategoryPageModule_declarations</title>
<polygon fill="none" stroke="#000000" points="384,-78 384,-130 838,-130 838,-78 384,-78"/>
</g>
<g id="clust6" class="cluster">
<title>cluster_SubcategoryPageModule_imports</title>
<polygon fill="none" stroke="#000000" points="16,-78 16,-130 376,-130 376,-78 16,-78"/>
</g>
<!-- FilterComponent -->
<g id="node1" class="node">
<title>FilterComponent</title>
<polygon fill="#ffffb3" stroke="#000000" points="829.6625,-122 718.3375,-122 718.3375,-86 829.6625,-86 829.6625,-122"/>
<text text-anchor="middle" x="774" y="-99.8" font-family="Times,serif" font-size="14.00" fill="#000000">FilterComponent</text>
</g>
<!-- SubcategoryPageModule -->
<g id="node4" class="node">
<title>SubcategoryPageModule</title>
<polygon fill="#8dd3c7" stroke="#000000" points="459.2394,-187 456.2394,-191 435.2394,-191 432.2394,-187 302.7606,-187 302.7606,-151 459.2394,-151 459.2394,-187"/>
<text text-anchor="middle" x="381" y="-164.8" font-family="Times,serif" font-size="14.00" fill="#000000">SubcategoryPageModule</text>
</g>
<!-- FilterComponent&#45;&gt;SubcategoryPageModule -->
<g id="edge1" class="edge">
<title>FilterComponent&#45;&gt;SubcategoryPageModule</title>
<path fill="none" stroke="#000000" d="M774,-122.2843C774,-143.3211 774,-175 774,-175 774,-175 469.5849,-175 469.5849,-175"/>
<polygon fill="#000000" stroke="#000000" points="469.5849,-171.5001 459.5849,-175 469.5848,-178.5001 469.5849,-171.5001"/>
</g>
<!-- SubcategoryItemComponent -->
<g id="node2" class="node">
<title>SubcategoryItemComponent</title>
<polygon fill="#ffffb3" stroke="#000000" points="700.4664,-122 523.5336,-122 523.5336,-86 700.4664,-86 700.4664,-122"/>
<text text-anchor="middle" x="612" y="-99.8" font-family="Times,serif" font-size="14.00" fill="#000000">SubcategoryItemComponent</text>
</g>
<!-- SubcategoryItemComponent&#45;&gt;SubcategoryPageModule -->
<g id="edge2" class="edge">
<title>SubcategoryItemComponent&#45;&gt;SubcategoryPageModule</title>
<path fill="none" stroke="#000000" d="M612,-122.0225C612,-139.3734 612,-163 612,-163 612,-163 469.5284,-163 469.5284,-163"/>
<polygon fill="#000000" stroke="#000000" points="469.5284,-159.5001 459.5284,-163 469.5284,-166.5001 469.5284,-159.5001"/>
</g>
<!-- SubcategoryPage -->
<g id="node3" class="node">
<title>SubcategoryPage</title>
<polygon fill="#ffffb3" stroke="#000000" points="505.6896,-122 392.3104,-122 392.3104,-86 505.6896,-86 505.6896,-122"/>
<text text-anchor="middle" x="449" y="-99.8" font-family="Times,serif" font-size="14.00" fill="#000000">SubcategoryPage</text>
</g>
<!-- SubcategoryPage&#45;&gt;SubcategoryPageModule -->
<g id="edge3" class="edge">
<title>SubcategoryPage&#45;&gt;SubcategoryPageModule</title>
<path fill="none" stroke="#000000" d="M425.8875,-122.1061C425.8875,-122.1061 425.8875,-140.991 425.8875,-140.991"/>
<polygon fill="#000000" stroke="#000000" points="422.3875,-140.9909 425.8875,-150.991 429.3875,-140.991 422.3875,-140.9909"/>
</g>
<!-- CarouselModule -->
<g id="node5" class="node">
<title>CarouselModule</title>
<polygon fill="#8dd3c7" stroke="#000000" points="367.8118,-122 364.8118,-126 343.8118,-126 340.8118,-122 258.1882,-122 258.1882,-86 367.8118,-86 367.8118,-122"/>
<text text-anchor="middle" x="313" y="-99.8" font-family="Times,serif" font-size="14.00" fill="#000000">CarouselModule</text>
</g>
<!-- CarouselModule&#45;&gt;SubcategoryPageModule -->
<g id="edge4" class="edge">
<title>CarouselModule&#45;&gt;SubcategoryPageModule</title>
<path fill="none" stroke="#000000" d="M335.1431,-122.1061C335.1431,-122.1061 335.1431,-140.991 335.1431,-140.991"/>
<polygon fill="#000000" stroke="#000000" points="331.6431,-140.9909 335.1431,-150.991 338.6431,-140.991 331.6431,-140.9909"/>
</g>
<!-- HeaderModule -->
<g id="node6" class="node">
<title>HeaderModule</title>
<polygon fill="#8dd3c7" stroke="#000000" points="239.9608,-122 236.9608,-126 215.9608,-126 212.9608,-122 140.0392,-122 140.0392,-86 239.9608,-86 239.9608,-122"/>
<text text-anchor="middle" x="190" y="-99.8" font-family="Times,serif" font-size="14.00" fill="#000000">HeaderModule</text>
</g>
<!-- HeaderModule&#45;&gt;SubcategoryPageModule -->
<g id="edge5" class="edge">
<title>HeaderModule&#45;&gt;SubcategoryPageModule</title>
<path fill="none" stroke="#000000" d="M190,-122.0225C190,-139.3734 190,-163 190,-163 190,-163 292.4861,-163 292.4861,-163"/>
<polygon fill="#000000" stroke="#000000" points="292.4862,-166.5001 302.4861,-163 292.4861,-159.5001 292.4862,-166.5001"/>
</g>
<!-- SharedModule -->
<g id="node7" class="node">
<title>SharedModule</title>
<polygon fill="#8dd3c7" stroke="#000000" points="122.4231,-122 119.4231,-126 98.4231,-126 95.4231,-122 23.5769,-122 23.5769,-86 122.4231,-86 122.4231,-122"/>
<text text-anchor="middle" x="73" y="-99.8" font-family="Times,serif" font-size="14.00" fill="#000000">SharedModule</text>
</g>
<!-- SharedModule&#45;&gt;SubcategoryPageModule -->
<g id="edge6" class="edge">
<title>SharedModule&#45;&gt;SubcategoryPageModule</title>
<path fill="none" stroke="#000000" d="M73,-122.2843C73,-143.3211 73,-175 73,-175 73,-175 292.4817,-175 292.4817,-175"/>
<polygon fill="#000000" stroke="#000000" points="292.4817,-178.5001 302.4817,-175 292.4816,-171.5001 292.4817,-178.5001"/>
</g>
</g>
</svg>
