<?xml version="1.0" encoding="UTF-8" standalone="no"?>
<!DOCTYPE svg PUBLIC "-//W3C//DTD SVG 1.1//EN"
 "http://www.w3.org/Graphics/SVG/1.1/DTD/svg11.dtd">
<!-- Generated by graphviz version 2.40.1 (20161225.0304)
 -->
<!-- Title: dependencies Pages: 1 -->
<svg width="746pt" height="211pt"
 viewBox="0.00 0.00 746.00 211.00" xmlns="http://www.w3.org/2000/svg" xmlns:xlink="http://www.w3.org/1999/xlink">
<g id="graph0" class="graph" transform="scale(1 1) rotate(0) translate(4 207)">
<title>dependencies</title>
<polygon fill="#ffffff" stroke="transparent" points="-4,4 -4,-207 742,-207 742,4 -4,4"/>
<text text-anchor="start" x="348.0091" y="-42.4" font-family="sans-serif" font-weight="bold" font-size="14.00" fill="#000000">Legend</text>
<polygon fill="#ffffb3" stroke="transparent" points="135,-10 135,-30 155,-30 155,-10 135,-10"/>
<text text-anchor="start" x="158.629" y="-15.4" font-family="sans-serif" font-size="14.00" fill="#000000"> &#160;Declarations</text>
<polygon fill="#8dd3c7" stroke="transparent" points="248,-10 248,-30 268,-30 268,-10 248,-10"/>
<text text-anchor="start" x="271.7251" y="-15.4" font-family="sans-serif" font-size="14.00" fill="#000000"> &#160;Module</text>
<polygon fill="#80b1d3" stroke="transparent" points="334,-10 334,-30 354,-30 354,-10 334,-10"/>
<text text-anchor="start" x="357.7812" y="-15.4" font-family="sans-serif" font-size="14.00" fill="#000000"> &#160;Bootstrap</text>
<polygon fill="#fdb462" stroke="transparent" points="431,-10 431,-30 451,-30 451,-10 431,-10"/>
<text text-anchor="start" x="454.6732" y="-15.4" font-family="sans-serif" font-size="14.00" fill="#000000"> &#160;Providers</text>
<polygon fill="#fb8072" stroke="transparent" points="527,-10 527,-30 547,-30 547,-10 527,-10"/>
<text text-anchor="start" x="550.7258" y="-15.4" font-family="sans-serif" font-size="14.00" fill="#000000"> &#160;Exports</text>
<g id="clust1" class="cluster">
<title>cluster_ProductDetailsPageModule</title>
<polygon fill="none" stroke="#000000" stroke-dasharray="1,5" points="8,-70 8,-195 730,-195 730,-70 8,-70"/>
</g>
<g id="clust2" class="cluster">
<title>cluster_ProductDetailsPageModule_declarations</title>
<polygon fill="none" stroke="#000000" points="394,-78 394,-130 722,-130 722,-78 394,-78"/>
</g>
<g id="clust5" class="cluster">
<title>cluster_ProductDetailsPageModule_imports</title>
<polygon fill="none" stroke="#000000" points="16,-78 16,-130 386,-130 386,-78 16,-78"/>
</g>
<!-- ProductDetailsPage -->
<g id="node1" class="node">
<title>ProductDetailsPage</title>
<polygon fill="#ffffb3" stroke="#000000" points="714.4131,-122 587.5869,-122 587.5869,-86 714.4131,-86 714.4131,-122"/>
<text text-anchor="middle" x="651" y="-99.8" font-family="Times,serif" font-size="14.00" fill="#000000">ProductDetailsPage</text>
</g>
<!-- ProductDetailsPageModule -->
<g id="node3" class="node">
<title>ProductDetailsPageModule</title>
<polygon fill="#8dd3c7" stroke="#000000" points="412.9622,-187 409.9622,-191 388.9622,-191 385.9622,-187 243.0378,-187 243.0378,-151 412.9622,-151 412.9622,-187"/>
<text text-anchor="middle" x="328" y="-164.8" font-family="Times,serif" font-size="14.00" fill="#000000">ProductDetailsPageModule</text>
</g>
<!-- ProductDetailsPage&#45;&gt;ProductDetailsPageModule -->
<g id="edge1" class="edge">
<title>ProductDetailsPage&#45;&gt;ProductDetailsPageModule</title>
<path fill="none" stroke="#000000" d="M651,-122.1061C651,-141.3391 651,-169 651,-169 651,-169 423.287,-169 423.287,-169"/>
<polygon fill="#000000" stroke="#000000" points="423.287,-165.5001 413.287,-169 423.2869,-172.5001 423.287,-165.5001"/>
</g>
<!-- ProductReviewComponent -->
<g id="node2" class="node">
<title>ProductReviewComponent</title>
<polygon fill="#ffffb3" stroke="#000000" points="569.6442,-122 402.3558,-122 402.3558,-86 569.6442,-86 569.6442,-122"/>
<text text-anchor="middle" x="486" y="-99.8" font-family="Times,serif" font-size="14.00" fill="#000000">ProductReviewComponent</text>
</g>
<!-- ProductReviewComponent&#45;&gt;ProductDetailsPageModule -->
<g id="edge2" class="edge">
<title>ProductReviewComponent&#45;&gt;ProductDetailsPageModule</title>
<path fill="none" stroke="#000000" d="M407.5796,-122.1061C407.5796,-122.1061 407.5796,-140.991 407.5796,-140.991"/>
<polygon fill="#000000" stroke="#000000" points="404.0797,-140.9909 407.5796,-150.991 411.0797,-140.991 404.0797,-140.9909"/>
</g>
<!-- HeaderModule -->
<g id="node4" class="node">
<title>HeaderModule</title>
<polygon fill="#8dd3c7" stroke="#000000" points="377.9608,-122 374.9608,-126 353.9608,-126 350.9608,-122 278.0392,-122 278.0392,-86 377.9608,-86 377.9608,-122"/>
<text text-anchor="middle" x="328" y="-99.8" font-family="Times,serif" font-size="14.00" fill="#000000">HeaderModule</text>
</g>
<!-- HeaderModule&#45;&gt;ProductDetailsPageModule -->
<g id="edge3" class="edge">
<title>HeaderModule&#45;&gt;ProductDetailsPageModule</title>
<path fill="none" stroke="#000000" d="M328,-122.1061C328,-122.1061 328,-140.991 328,-140.991"/>
<polygon fill="#000000" stroke="#000000" points="324.5001,-140.9909 328,-150.991 331.5001,-140.991 324.5001,-140.9909"/>
</g>
<!-- InputFormModule -->
<g id="node5" class="node">
<title>InputFormModule</title>
<polygon fill="#8dd3c7" stroke="#000000" points="259.9356,-122 256.9356,-126 235.9356,-126 232.9356,-122 140.0644,-122 140.0644,-86 259.9356,-86 259.9356,-122"/>
<text text-anchor="middle" x="200" y="-99.8" font-family="Times,serif" font-size="14.00" fill="#000000">InputFormModule</text>
</g>
<!-- InputFormModule&#45;&gt;ProductDetailsPageModule -->
<g id="edge4" class="edge">
<title>InputFormModule&#45;&gt;ProductDetailsPageModule</title>
<path fill="none" stroke="#000000" d="M251.3682,-122.1061C251.3682,-122.1061 251.3682,-140.991 251.3682,-140.991"/>
<polygon fill="#000000" stroke="#000000" points="247.8682,-140.9909 251.3682,-150.991 254.8682,-140.991 247.8682,-140.9909"/>
</g>
<!-- SharedModule -->
<g id="node6" class="node">
<title>SharedModule</title>
<polygon fill="#8dd3c7" stroke="#000000" points="122.4231,-122 119.4231,-126 98.4231,-126 95.4231,-122 23.5769,-122 23.5769,-86 122.4231,-86 122.4231,-122"/>
<text text-anchor="middle" x="73" y="-99.8" font-family="Times,serif" font-size="14.00" fill="#000000">SharedModule</text>
</g>
<!-- SharedModule&#45;&gt;ProductDetailsPageModule -->
<g id="edge5" class="edge">
<title>SharedModule&#45;&gt;ProductDetailsPageModule</title>
<path fill="none" stroke="#000000" d="M73,-122.1061C73,-141.3391 73,-169 73,-169 73,-169 232.7342,-169 232.7342,-169"/>
<polygon fill="#000000" stroke="#000000" points="232.7342,-172.5001 242.7342,-169 232.7341,-165.5001 232.7342,-172.5001"/>
</g>
</g>
</svg>
