<?xml version="1.0" encoding="UTF-8" standalone="no"?>
<!DOCTYPE svg PUBLIC "-//W3C//DTD SVG 1.1//EN"
 "http://www.w3.org/Graphics/SVG/1.1/DTD/svg11.dtd">
<!-- Generated by graphviz version 2.40.1 (20161225.0304)
 -->
<!-- Title: dependencies Pages: 1 -->
<svg width="1442pt" height="284pt"
 viewBox="0.00 0.00 1442.00 284.00" xmlns="http://www.w3.org/2000/svg" xmlns:xlink="http://www.w3.org/1999/xlink">
<g id="graph0" class="graph" transform="scale(1 1) rotate(0) translate(4 280)">
<title>dependencies</title>
<polygon fill="#ffffff" stroke="transparent" points="-4,4 -4,-280 1438,-280 1438,4 -4,4"/>
<text text-anchor="start" x="696.0091" y="-42.4" font-family="sans-serif" font-weight="bold" font-size="14.00" fill="#000000">Legend</text>
<polygon fill="#ffffb3" stroke="transparent" points="483,-10 483,-30 503,-30 503,-10 483,-10"/>
<text text-anchor="start" x="506.629" y="-15.4" font-family="sans-serif" font-size="14.00" fill="#000000"> &#160;Declarations</text>
<polygon fill="#8dd3c7" stroke="transparent" points="596,-10 596,-30 616,-30 616,-10 596,-10"/>
<text text-anchor="start" x="619.7251" y="-15.4" font-family="sans-serif" font-size="14.00" fill="#000000"> &#160;Module</text>
<polygon fill="#80b1d3" stroke="transparent" points="682,-10 682,-30 702,-30 702,-10 682,-10"/>
<text text-anchor="start" x="705.7812" y="-15.4" font-family="sans-serif" font-size="14.00" fill="#000000"> &#160;Bootstrap</text>
<polygon fill="#fdb462" stroke="transparent" points="779,-10 779,-30 799,-30 799,-10 779,-10"/>
<text text-anchor="start" x="802.6732" y="-15.4" font-family="sans-serif" font-size="14.00" fill="#000000"> &#160;Providers</text>
<polygon fill="#fb8072" stroke="transparent" points="875,-10 875,-30 895,-30 895,-10 875,-10"/>
<text text-anchor="start" x="898.7258" y="-15.4" font-family="sans-serif" font-size="14.00" fill="#000000"> &#160;Exports</text>
<g id="clust1" class="cluster">
<title>cluster_HeaderModule</title>
<polygon fill="none" stroke="#000000" stroke-dasharray="1,5" points="8,-70 8,-268 1426,-268 1426,-70 8,-70"/>
</g>
<g id="clust2" class="cluster">
<title>cluster_HeaderModule_declarations</title>
<polygon fill="none" stroke="#000000" points="265,-78 265,-130 1418,-130 1418,-78 265,-78"/>
</g>
<g id="clust10" class="cluster">
<title>cluster_HeaderModule_imports</title>
<polygon fill="none" stroke="#000000" points="16,-78 16,-130 257,-130 257,-78 16,-78"/>
</g>
<g id="clust11" class="cluster">
<title>cluster_HeaderModule_exports</title>
<polygon fill="none" stroke="#000000" points="285,-208 285,-260 1088,-260 1088,-208 285,-208"/>
</g>
<!-- CategoryMenuComponent -->
<g id="node1" class="node">
<title>CategoryMenuComponent</title>
<polygon fill="#ffffb3" stroke="#000000" points="1409.8089,-122 1244.1911,-122 1244.1911,-86 1409.8089,-86 1409.8089,-122"/>
<text text-anchor="middle" x="1327" y="-99.8" font-family="Times,serif" font-size="14.00" fill="#000000">CategoryMenuComponent</text>
</g>
<!-- HeaderModule -->
<g id="node8" class="node">
<title>HeaderModule</title>
<polygon fill="#8dd3c7" stroke="#000000" points="751.9608,-187 748.9608,-191 727.9608,-191 724.9608,-187 652.0392,-187 652.0392,-151 751.9608,-151 751.9608,-187"/>
<text text-anchor="middle" x="702" y="-164.8" font-family="Times,serif" font-size="14.00" fill="#000000">HeaderModule</text>
</g>
<!-- CategoryMenuComponent&#45;&gt;HeaderModule -->
<g id="edge1" class="edge">
<title>CategoryMenuComponent&#45;&gt;HeaderModule</title>
<path fill="none" stroke="#000000" d="M1327,-122.2228C1327,-142.3652 1327,-172 1327,-172 1327,-172 762.0899,-172 762.0899,-172"/>
<polygon fill="#000000" stroke="#000000" points="762.0899,-168.5001 752.0899,-172 762.0898,-175.5001 762.0899,-168.5001"/>
</g>
<!-- HeaderComponent -->
<g id="node2" class="node">
<title>HeaderComponent</title>
<polygon fill="#ffffb3" stroke="#000000" points="1225.7437,-122 1104.2563,-122 1104.2563,-86 1225.7437,-86 1225.7437,-122"/>
<text text-anchor="middle" x="1165" y="-99.8" font-family="Times,serif" font-size="14.00" fill="#000000">HeaderComponent</text>
</g>
<!-- HeaderComponent&#45;&gt;HeaderModule -->
<g id="edge2" class="edge">
<title>HeaderComponent&#45;&gt;HeaderModule</title>
<path fill="none" stroke="#000000" d="M1165,-122.2222C1165,-140.8285 1165,-167 1165,-167 1165,-167 761.989,-167 761.989,-167"/>
<polygon fill="#000000" stroke="#000000" points="761.9891,-163.5001 751.989,-167 761.989,-170.5001 761.9891,-163.5001"/>
</g>
<!-- HomeBannerComponent -->
<g id="node3" class="node">
<title>HomeBannerComponent</title>
<polygon fill="#ffffb3" stroke="#000000" points="1085.9706,-122 930.0294,-122 930.0294,-86 1085.9706,-86 1085.9706,-122"/>
<text text-anchor="middle" x="1008" y="-99.8" font-family="Times,serif" font-size="14.00" fill="#000000">HomeBannerComponent</text>
</g>
<!-- HomeBannerComponent&#45;&gt;HeaderModule -->
<g id="edge3" class="edge">
<title>HomeBannerComponent&#45;&gt;HeaderModule</title>
<path fill="none" stroke="#000000" d="M945.5568,-122.0336C945.5568,-139.0597 945.5568,-162 945.5568,-162 945.5568,-162 762.1698,-162 762.1698,-162"/>
<polygon fill="#000000" stroke="#000000" points="762.1698,-158.5001 752.1698,-162 762.1698,-165.5001 762.1698,-158.5001"/>
</g>
<!-- LogoComponent -->
<g id="node4" class="node">
<title>LogoComponent</title>
<polygon fill="#ffffb3" stroke="#000000" points="912.3851,-122 801.6149,-122 801.6149,-86 912.3851,-86 912.3851,-122"/>
<text text-anchor="middle" x="857" y="-99.8" font-family="Times,serif" font-size="14.00" fill="#000000">LogoComponent</text>
</g>
<!-- LogoComponent&#45;&gt;HeaderModule -->
<g id="edge4" class="edge">
<title>LogoComponent&#45;&gt;HeaderModule</title>
<path fill="none" stroke="#000000" d="M857,-122.2396C857,-137.5706 857,-157 857,-157 857,-157 762.3241,-157 762.3241,-157"/>
<polygon fill="#000000" stroke="#000000" points="762.3241,-153.5001 752.3241,-157 762.324,-160.5001 762.3241,-153.5001"/>
</g>
<!-- NavigationBarComponent -->
<g id="node5" class="node">
<title>NavigationBarComponent</title>
<polygon fill="#ffffb3" stroke="#000000" points="783.752,-122 620.248,-122 620.248,-86 783.752,-86 783.752,-122"/>
<text text-anchor="middle" x="702" y="-99.8" font-family="Times,serif" font-size="14.00" fill="#000000">NavigationBarComponent</text>
</g>
<!-- NavigationBarComponent&#45;&gt;HeaderModule -->
<g id="edge5" class="edge">
<title>NavigationBarComponent&#45;&gt;HeaderModule</title>
<path fill="none" stroke="#000000" d="M702,-122.1061C702,-122.1061 702,-140.991 702,-140.991"/>
<polygon fill="#000000" stroke="#000000" points="698.5001,-140.9909 702,-150.991 705.5001,-140.991 698.5001,-140.9909"/>
</g>
<!-- TopHeaderComponent -->
<g id="node6" class="node">
<title>TopHeaderComponent</title>
<polygon fill="#ffffb3" stroke="#000000" points="602.2963,-122 457.7037,-122 457.7037,-86 602.2963,-86 602.2963,-122"/>
<text text-anchor="middle" x="530" y="-99.8" font-family="Times,serif" font-size="14.00" fill="#000000">TopHeaderComponent</text>
</g>
<!-- TopHeaderComponent&#45;&gt;HeaderModule -->
<g id="edge6" class="edge">
<title>TopHeaderComponent&#45;&gt;HeaderModule</title>
<path fill="none" stroke="#000000" d="M530.7611,-122.2396C530.7611,-137.5706 530.7611,-157 530.7611,-157 530.7611,-157 642.0103,-157 642.0103,-157"/>
<polygon fill="#000000" stroke="#000000" points="642.0103,-160.5001 652.0103,-157 642.0102,-153.5001 642.0103,-160.5001"/>
</g>
<!-- TopHeaderEndComponent -->
<g id="node7" class="node">
<title>TopHeaderEndComponent</title>
<polygon fill="#ffffb3" stroke="#000000" points="439.3487,-122 272.6513,-122 272.6513,-86 439.3487,-86 439.3487,-122"/>
<text text-anchor="middle" x="356" y="-99.8" font-family="Times,serif" font-size="14.00" fill="#000000">TopHeaderEndComponent</text>
</g>
<!-- TopHeaderEndComponent&#45;&gt;HeaderModule -->
<g id="edge7" class="edge">
<title>TopHeaderEndComponent&#45;&gt;HeaderModule</title>
<path fill="none" stroke="#000000" d="M341.8761,-122.0336C341.8761,-139.0597 341.8761,-162 341.8761,-162 341.8761,-162 641.9263,-162 641.9263,-162"/>
<polygon fill="#000000" stroke="#000000" points="641.9263,-165.5001 651.9263,-162 641.9263,-158.5001 641.9263,-165.5001"/>
</g>
<!-- HeaderComponent  -->
<g id="node11" class="node">
<title>HeaderComponent </title>
<polygon fill="#fb8072" stroke="#000000" points="1079.7436,-252 954.2564,-252 954.2564,-216 1079.7436,-216 1079.7436,-252"/>
<text text-anchor="middle" x="1017" y="-229.8" font-family="Times,serif" font-size="14.00" fill="#000000">HeaderComponent </text>
</g>
<!-- HeaderModule&#45;&gt;HeaderComponent  -->
<g id="edge10" class="edge">
<title>HeaderModule&#45;&gt;HeaderComponent </title>
<path fill="none" stroke="#000000" stroke-dasharray="5,2" d="M752.261,-177C841.1941,-177 1017,-177 1017,-177 1017,-177 1017,-205.9648 1017,-205.9648"/>
<polygon fill="#000000" stroke="#000000" points="1013.5001,-205.9648 1017,-215.9648 1020.5001,-205.9649 1013.5001,-205.9648"/>
</g>
<!-- HomeBannerComponent  -->
<g id="node12" class="node">
<title>HomeBannerComponent </title>
<polygon fill="#fb8072" stroke="#000000" points="936.9713,-252 777.0287,-252 777.0287,-216 936.9713,-216 936.9713,-252"/>
<text text-anchor="middle" x="857" y="-229.8" font-family="Times,serif" font-size="14.00" fill="#000000">HomeBannerComponent </text>
</g>
<!-- HeaderModule&#45;&gt;HomeBannerComponent  -->
<g id="edge11" class="edge">
<title>HeaderModule&#45;&gt;HomeBannerComponent </title>
<path fill="none" stroke="#000000" stroke-dasharray="5,2" d="M752.1344,-182C773.1147,-182 792.7167,-182 792.7167,-182 792.7167,-182 792.7167,-205.8129 792.7167,-205.8129"/>
<polygon fill="#000000" stroke="#000000" points="789.2168,-205.8129 792.7167,-215.8129 796.2168,-205.813 789.2168,-205.8129"/>
</g>
<!-- LogoComponent  -->
<g id="node13" class="node">
<title>LogoComponent </title>
<polygon fill="#fb8072" stroke="#000000" points="759.3857,-252 644.6143,-252 644.6143,-216 759.3857,-216 759.3857,-252"/>
<text text-anchor="middle" x="702" y="-229.8" font-family="Times,serif" font-size="14.00" fill="#000000">LogoComponent </text>
</g>
<!-- HeaderModule&#45;&gt;LogoComponent  -->
<g id="edge12" class="edge">
<title>HeaderModule&#45;&gt;LogoComponent </title>
<path fill="none" stroke="#000000" stroke-dasharray="5,2" d="M702,-187.1061C702,-187.1061 702,-205.991 702,-205.991"/>
<polygon fill="#000000" stroke="#000000" points="698.5001,-205.9909 702,-215.991 705.5001,-205.991 698.5001,-205.9909"/>
</g>
<!-- NavigationBarComponent  -->
<g id="node14" class="node">
<title>NavigationBarComponent </title>
<polygon fill="#fb8072" stroke="#000000" points="626.752,-252 459.248,-252 459.248,-216 626.752,-216 626.752,-252"/>
<text text-anchor="middle" x="543" y="-229.8" font-family="Times,serif" font-size="14.00" fill="#000000">NavigationBarComponent </text>
</g>
<!-- HeaderModule&#45;&gt;NavigationBarComponent  -->
<g id="edge13" class="edge">
<title>HeaderModule&#45;&gt;NavigationBarComponent </title>
<path fill="none" stroke="#000000" stroke-dasharray="5,2" d="M651.7843,-182C630.7699,-182 611.1361,-182 611.1361,-182 611.1361,-182 611.1361,-205.8129 611.1361,-205.8129"/>
<polygon fill="#000000" stroke="#000000" points="607.6361,-205.8129 611.1361,-215.8129 614.6361,-205.813 607.6361,-205.8129"/>
</g>
<!-- TopHeaderComponent  -->
<g id="node15" class="node">
<title>TopHeaderComponent </title>
<polygon fill="#fb8072" stroke="#000000" points="440.7961,-252 293.2039,-252 293.2039,-216 440.7961,-216 440.7961,-252"/>
<text text-anchor="middle" x="367" y="-229.8" font-family="Times,serif" font-size="14.00" fill="#000000">TopHeaderComponent </text>
</g>
<!-- HeaderModule&#45;&gt;TopHeaderComponent  -->
<g id="edge14" class="edge">
<title>HeaderModule&#45;&gt;TopHeaderComponent </title>
<path fill="none" stroke="#000000" stroke-dasharray="5,2" d="M651.9763,-177C563.9649,-177 390.6502,-177 390.6502,-177 390.6502,-177 390.6502,-205.9648 390.6502,-205.9648"/>
<polygon fill="#000000" stroke="#000000" points="387.1503,-205.9648 390.6502,-215.9648 394.1503,-205.9649 387.1503,-205.9648"/>
</g>
<!-- AuthModule -->
<g id="node9" class="node">
<title>AuthModule</title>
<polygon fill="#8dd3c7" stroke="#000000" points="248.5482,-122 245.5482,-126 224.5482,-126 221.5482,-122 161.4518,-122 161.4518,-86 248.5482,-86 248.5482,-122"/>
<text text-anchor="middle" x="205" y="-99.8" font-family="Times,serif" font-size="14.00" fill="#000000">AuthModule</text>
</g>
<!-- AuthModule&#45;&gt;HeaderModule -->
<g id="edge8" class="edge">
<title>AuthModule&#45;&gt;HeaderModule</title>
<path fill="none" stroke="#000000" d="M205,-122.2222C205,-140.8285 205,-167 205,-167 205,-167 641.6099,-167 641.6099,-167"/>
<polygon fill="#000000" stroke="#000000" points="641.61,-170.5001 651.6099,-167 641.6099,-163.5001 641.61,-170.5001"/>
</g>
<!-- InputFormModule -->
<g id="node10" class="node">
<title>InputFormModule</title>
<polygon fill="#8dd3c7" stroke="#000000" points="143.9356,-122 140.9356,-126 119.9356,-126 116.9356,-122 24.0644,-122 24.0644,-86 143.9356,-86 143.9356,-122"/>
<text text-anchor="middle" x="84" y="-99.8" font-family="Times,serif" font-size="14.00" fill="#000000">InputFormModule</text>
</g>
<!-- InputFormModule&#45;&gt;HeaderModule -->
<g id="edge9" class="edge">
<title>InputFormModule&#45;&gt;HeaderModule</title>
<path fill="none" stroke="#000000" d="M84,-122.2228C84,-142.3652 84,-172 84,-172 84,-172 641.95,-172 641.95,-172"/>
<polygon fill="#000000" stroke="#000000" points="641.95,-175.5001 651.95,-172 641.9499,-168.5001 641.95,-175.5001"/>
</g>
</g>
</svg>
