<?xml version="1.0" encoding="UTF-8" standalone="no"?>
<!DOCTYPE svg PUBLIC "-//W3C//DTD SVG 1.1//EN"
 "http://www.w3.org/Graphics/SVG/1.1/DTD/svg11.dtd">
<!-- Generated by graphviz version 2.40.1 (20161225.0304)
 -->
<!-- Title: dependencies Pages: 1 -->
<svg width="1440pt" height="284pt"
 viewBox="0.00 0.00 1440.00 284.00" xmlns="http://www.w3.org/2000/svg" xmlns:xlink="http://www.w3.org/1999/xlink">
<g id="graph0" class="graph" transform="scale(1 1) rotate(0) translate(4 280)">
<title>dependencies</title>
<polygon fill="#ffffff" stroke="transparent" points="-4,4 -4,-280 1436,-280 1436,4 -4,4"/>
<text text-anchor="start" x="695.0091" y="-42.4" font-family="sans-serif" font-weight="bold" font-size="14.00" fill="#000000">Legend</text>
<polygon fill="#ffffb3" stroke="transparent" points="482,-10 482,-30 502,-30 502,-10 482,-10"/>
<text text-anchor="start" x="505.629" y="-15.4" font-family="sans-serif" font-size="14.00" fill="#000000"> &#160;Declarations</text>
<polygon fill="#8dd3c7" stroke="transparent" points="595,-10 595,-30 615,-30 615,-10 595,-10"/>
<text text-anchor="start" x="618.7251" y="-15.4" font-family="sans-serif" font-size="14.00" fill="#000000"> &#160;Module</text>
<polygon fill="#80b1d3" stroke="transparent" points="681,-10 681,-30 701,-30 701,-10 681,-10"/>
<text text-anchor="start" x="704.7812" y="-15.4" font-family="sans-serif" font-size="14.00" fill="#000000"> &#160;Bootstrap</text>
<polygon fill="#fdb462" stroke="transparent" points="778,-10 778,-30 798,-30 798,-10 778,-10"/>
<text text-anchor="start" x="801.6732" y="-15.4" font-family="sans-serif" font-size="14.00" fill="#000000"> &#160;Providers</text>
<polygon fill="#fb8072" stroke="transparent" points="874,-10 874,-30 894,-30 894,-10 874,-10"/>
<text text-anchor="start" x="897.7258" y="-15.4" font-family="sans-serif" font-size="14.00" fill="#000000"> &#160;Exports</text>
<g id="clust1" class="cluster">
<title>cluster_HeaderModule</title>
<polygon fill="none" stroke="#000000" stroke-dasharray="1,5" points="8,-70 8,-268 1424,-268 1424,-70 8,-70"/>
</g>
<g id="clust2" class="cluster">
<title>cluster_HeaderModule_declarations</title>
<polygon fill="none" stroke="#000000" points="265,-78 265,-130 1416,-130 1416,-78 265,-78"/>
</g>
<g id="clust10" class="cluster">
<title>cluster_HeaderModule_imports</title>
<polygon fill="none" stroke="#000000" points="16,-78 16,-130 257,-130 257,-78 16,-78"/>
</g>
<g id="clust11" class="cluster">
<title>cluster_HeaderModule_exports</title>
<polygon fill="none" stroke="#000000" points="178,-208 178,-260 1167,-260 1167,-208 178,-208"/>
</g>
<!-- CategoryMenuComponent -->
<g id="node1" class="node">
<title>CategoryMenuComponent</title>
<polygon fill="#ffffb3" stroke="#000000" points="1407.8089,-122 1242.1911,-122 1242.1911,-86 1407.8089,-86 1407.8089,-122"/>
<text text-anchor="middle" x="1325" y="-99.8" font-family="Times,serif" font-size="14.00" fill="#000000">CategoryMenuComponent</text>
</g>
<!-- HeaderModule -->
<g id="node8" class="node">
<title>HeaderModule</title>
<polygon fill="#8dd3c7" stroke="#000000" points="721.9608,-187 718.9608,-191 697.9608,-191 694.9608,-187 622.0392,-187 622.0392,-151 721.9608,-151 721.9608,-187"/>
<text text-anchor="middle" x="672" y="-164.8" font-family="Times,serif" font-size="14.00" fill="#000000">HeaderModule</text>
</g>
<!-- CategoryMenuComponent&#45;&gt;HeaderModule -->
<g id="edge1" class="edge">
<title>CategoryMenuComponent&#45;&gt;HeaderModule</title>
<path fill="none" stroke="#000000" d="M1325,-122.2228C1325,-142.3652 1325,-172 1325,-172 1325,-172 732.1555,-172 732.1555,-172"/>
<polygon fill="#000000" stroke="#000000" points="732.1556,-168.5001 722.1555,-172 732.1555,-175.5001 732.1556,-168.5001"/>
</g>
<!-- HeaderButtonsComponent -->
<g id="node2" class="node">
<title>HeaderButtonsComponent</title>
<polygon fill="#ffffb3" stroke="#000000" points="1224.8061,-122 1059.1939,-122 1059.1939,-86 1224.8061,-86 1224.8061,-122"/>
<text text-anchor="middle" x="1142" y="-99.8" font-family="Times,serif" font-size="14.00" fill="#000000">HeaderButtonsComponent</text>
</g>
<!-- HeaderButtonsComponent&#45;&gt;HeaderModule -->
<g id="edge2" class="edge">
<title>HeaderButtonsComponent&#45;&gt;HeaderModule</title>
<path fill="none" stroke="#000000" d="M1109.375,-122.2222C1109.375,-140.8285 1109.375,-167 1109.375,-167 1109.375,-167 732.1725,-167 732.1725,-167"/>
<polygon fill="#000000" stroke="#000000" points="732.1725,-163.5001 722.1725,-167 732.1724,-170.5001 732.1725,-163.5001"/>
</g>
<!-- HeaderComponent -->
<g id="node3" class="node">
<title>HeaderComponent</title>
<polygon fill="#ffffb3" stroke="#000000" points="1040.7437,-122 919.2563,-122 919.2563,-86 1040.7437,-86 1040.7437,-122"/>
<text text-anchor="middle" x="980" y="-99.8" font-family="Times,serif" font-size="14.00" fill="#000000">HeaderComponent</text>
</g>
<!-- HeaderComponent&#45;&gt;HeaderModule -->
<g id="edge3" class="edge">
<title>HeaderComponent&#45;&gt;HeaderModule</title>
<path fill="none" stroke="#000000" d="M945.875,-122.0336C945.875,-139.0597 945.875,-162 945.875,-162 945.875,-162 732.2329,-162 732.2329,-162"/>
<polygon fill="#000000" stroke="#000000" points="732.2329,-158.5001 722.2329,-162 732.2329,-165.5001 732.2329,-158.5001"/>
</g>
<!-- HomeBannerComponent -->
<g id="node4" class="node">
<title>HomeBannerComponent</title>
<polygon fill="#ffffb3" stroke="#000000" points="900.9706,-122 745.0294,-122 745.0294,-86 900.9706,-86 900.9706,-122"/>
<text text-anchor="middle" x="823" y="-99.8" font-family="Times,serif" font-size="14.00" fill="#000000">HomeBannerComponent</text>
</g>
<!-- HomeBannerComponent&#45;&gt;HeaderModule -->
<g id="edge4" class="edge">
<title>HomeBannerComponent&#45;&gt;HeaderModule</title>
<path fill="none" stroke="#000000" d="M787.375,-122.2396C787.375,-137.5706 787.375,-157 787.375,-157 787.375,-157 732.2695,-157 732.2695,-157"/>
<polygon fill="#000000" stroke="#000000" points="732.2696,-153.5001 722.2695,-157 732.2695,-160.5001 732.2696,-153.5001"/>
</g>
<!-- LogoComponent -->
<g id="node5" class="node">
<title>LogoComponent</title>
<polygon fill="#ffffb3" stroke="#000000" points="727.3851,-122 616.6149,-122 616.6149,-86 727.3851,-86 727.3851,-122"/>
<text text-anchor="middle" x="672" y="-99.8" font-family="Times,serif" font-size="14.00" fill="#000000">LogoComponent</text>
</g>
<!-- LogoComponent&#45;&gt;HeaderModule -->
<g id="edge5" class="edge">
<title>LogoComponent&#45;&gt;HeaderModule</title>
<path fill="none" stroke="#000000" d="M672,-122.1061C672,-122.1061 672,-140.991 672,-140.991"/>
<polygon fill="#000000" stroke="#000000" points="668.5001,-140.9909 672,-150.991 675.5001,-140.991 668.5001,-140.9909"/>
</g>
<!-- NavigationBarComponent -->
<g id="node6" class="node">
<title>NavigationBarComponent</title>
<polygon fill="#ffffb3" stroke="#000000" points="598.752,-122 435.248,-122 435.248,-86 598.752,-86 598.752,-122"/>
<text text-anchor="middle" x="517" y="-99.8" font-family="Times,serif" font-size="14.00" fill="#000000">NavigationBarComponent</text>
</g>
<!-- NavigationBarComponent&#45;&gt;HeaderModule -->
<g id="edge6" class="edge">
<title>NavigationBarComponent&#45;&gt;HeaderModule</title>
<path fill="none" stroke="#000000" d="M568.3417,-122.2396C568.3417,-137.5706 568.3417,-157 568.3417,-157 568.3417,-157 611.9926,-157 611.9926,-157"/>
<polygon fill="#000000" stroke="#000000" points="611.9927,-160.5001 621.9926,-157 611.9926,-153.5001 611.9927,-160.5001"/>
</g>
<!-- TopHeaderComponent -->
<g id="node7" class="node">
<title>TopHeaderComponent</title>
<polygon fill="#ffffb3" stroke="#000000" points="417.2963,-122 272.7037,-122 272.7037,-86 417.2963,-86 417.2963,-122"/>
<text text-anchor="middle" x="345" y="-99.8" font-family="Times,serif" font-size="14.00" fill="#000000">TopHeaderComponent</text>
</g>
<!-- TopHeaderComponent&#45;&gt;HeaderModule -->
<g id="edge7" class="edge">
<title>TopHeaderComponent&#45;&gt;HeaderModule</title>
<path fill="none" stroke="#000000" d="M384.7611,-122.0336C384.7611,-139.0597 384.7611,-162 384.7611,-162 384.7611,-162 611.9668,-162 611.9668,-162"/>
<polygon fill="#000000" stroke="#000000" points="611.9668,-165.5001 621.9668,-162 611.9668,-158.5001 611.9668,-165.5001"/>
</g>
<!-- HeaderButtonsComponent  -->
<g id="node11" class="node">
<title>HeaderButtonsComponent </title>
<polygon fill="#fb8072" stroke="#000000" points="1159.3059,-252 990.6941,-252 990.6941,-216 1159.3059,-216 1159.3059,-252"/>
<text text-anchor="middle" x="1075" y="-229.8" font-family="Times,serif" font-size="14.00" fill="#000000">HeaderButtonsComponent </text>
</g>
<!-- HeaderModule&#45;&gt;HeaderButtonsComponent  -->
<g id="edge10" class="edge">
<title>HeaderModule&#45;&gt;HeaderButtonsComponent </title>
<path fill="none" stroke="#000000" stroke-dasharray="5,2" d="M721.9819,-177C817.3158,-177 1015.7344,-177 1015.7344,-177 1015.7344,-177 1015.7344,-205.9648 1015.7344,-205.9648"/>
<polygon fill="#000000" stroke="#000000" points="1012.2345,-205.9648 1015.7344,-215.9648 1019.2345,-205.9649 1012.2345,-205.9648"/>
</g>
<!-- HeaderComponent  -->
<g id="node12" class="node">
<title>HeaderComponent </title>
<polygon fill="#fb8072" stroke="#000000" points="972.7436,-252 847.2564,-252 847.2564,-216 972.7436,-216 972.7436,-252"/>
<text text-anchor="middle" x="910" y="-229.8" font-family="Times,serif" font-size="14.00" fill="#000000">HeaderComponent </text>
</g>
<!-- HeaderModule&#45;&gt;HeaderComponent  -->
<g id="edge11" class="edge">
<title>HeaderModule&#45;&gt;HeaderComponent </title>
<path fill="none" stroke="#000000" stroke-dasharray="5,2" d="M721.9775,-182C781.8494,-182 874.1818,-182 874.1818,-182 874.1818,-182 874.1818,-205.8129 874.1818,-205.8129"/>
<polygon fill="#000000" stroke="#000000" points="870.6819,-205.8129 874.1818,-215.8129 877.6819,-205.813 870.6819,-205.8129"/>
</g>
<!-- HomeBannerComponent  -->
<g id="node13" class="node">
<title>HomeBannerComponent </title>
<polygon fill="#fb8072" stroke="#000000" points="829.9713,-252 670.0287,-252 670.0287,-216 829.9713,-216 829.9713,-252"/>
<text text-anchor="middle" x="750" y="-229.8" font-family="Times,serif" font-size="14.00" fill="#000000">HomeBannerComponent </text>
</g>
<!-- HeaderModule&#45;&gt;HomeBannerComponent  -->
<g id="edge12" class="edge">
<title>HeaderModule&#45;&gt;HomeBannerComponent </title>
<path fill="none" stroke="#000000" stroke-dasharray="5,2" d="M696.1226,-187.1061C696.1226,-187.1061 696.1226,-205.991 696.1226,-205.991"/>
<polygon fill="#000000" stroke="#000000" points="692.6226,-205.9909 696.1226,-215.991 699.6226,-205.991 692.6226,-205.9909"/>
</g>
<!-- LogoComponent  -->
<g id="node14" class="node">
<title>LogoComponent </title>
<polygon fill="#fb8072" stroke="#000000" points="652.3857,-252 537.6143,-252 537.6143,-216 652.3857,-216 652.3857,-252"/>
<text text-anchor="middle" x="595" y="-229.8" font-family="Times,serif" font-size="14.00" fill="#000000">LogoComponent </text>
</g>
<!-- HeaderModule&#45;&gt;LogoComponent  -->
<g id="edge13" class="edge">
<title>HeaderModule&#45;&gt;LogoComponent </title>
<path fill="none" stroke="#000000" stroke-dasharray="5,2" d="M637.1061,-187.1061C637.1061,-187.1061 637.1061,-205.991 637.1061,-205.991"/>
<polygon fill="#000000" stroke="#000000" points="633.6061,-205.9909 637.1061,-215.991 640.6061,-205.991 633.6061,-205.9909"/>
</g>
<!-- NavigationBarComponent  -->
<g id="node15" class="node">
<title>NavigationBarComponent </title>
<polygon fill="#fb8072" stroke="#000000" points="519.752,-252 352.248,-252 352.248,-216 519.752,-216 519.752,-252"/>
<text text-anchor="middle" x="436" y="-229.8" font-family="Times,serif" font-size="14.00" fill="#000000">NavigationBarComponent </text>
</g>
<!-- HeaderModule&#45;&gt;NavigationBarComponent  -->
<g id="edge14" class="edge">
<title>HeaderModule&#45;&gt;NavigationBarComponent </title>
<path fill="none" stroke="#000000" stroke-dasharray="5,2" d="M621.8792,-182C564.2132,-182 477.375,-182 477.375,-182 477.375,-182 477.375,-205.8129 477.375,-205.8129"/>
<polygon fill="#000000" stroke="#000000" points="473.8751,-205.8129 477.375,-215.8129 480.8751,-205.813 473.8751,-205.8129"/>
</g>
<!-- TopHeaderComponent  -->
<g id="node16" class="node">
<title>TopHeaderComponent </title>
<polygon fill="#fb8072" stroke="#000000" points="333.7961,-252 186.2039,-252 186.2039,-216 333.7961,-216 333.7961,-252"/>
<text text-anchor="middle" x="260" y="-229.8" font-family="Times,serif" font-size="14.00" fill="#000000">TopHeaderComponent </text>
</g>
<!-- HeaderModule&#45;&gt;TopHeaderComponent  -->
<g id="edge15" class="edge">
<title>HeaderModule&#45;&gt;TopHeaderComponent </title>
<path fill="none" stroke="#000000" stroke-dasharray="5,2" d="M621.902,-177C521.1131,-177 303.375,-177 303.375,-177 303.375,-177 303.375,-205.9648 303.375,-205.9648"/>
<polygon fill="#000000" stroke="#000000" points="299.8751,-205.9648 303.375,-215.9648 306.8751,-205.9649 299.8751,-205.9648"/>
</g>
<!-- AuthModule -->
<g id="node9" class="node">
<title>AuthModule</title>
<polygon fill="#8dd3c7" stroke="#000000" points="248.5482,-122 245.5482,-126 224.5482,-126 221.5482,-122 161.4518,-122 161.4518,-86 248.5482,-86 248.5482,-122"/>
<text text-anchor="middle" x="205" y="-99.8" font-family="Times,serif" font-size="14.00" fill="#000000">AuthModule</text>
</g>
<!-- AuthModule&#45;&gt;HeaderModule -->
<g id="edge8" class="edge">
<title>AuthModule&#45;&gt;HeaderModule</title>
<path fill="none" stroke="#000000" d="M217.4378,-122.2222C217.4378,-140.8285 217.4378,-167 217.4378,-167 217.4378,-167 611.6171,-167 611.6171,-167"/>
<polygon fill="#000000" stroke="#000000" points="611.6171,-170.5001 621.6171,-167 611.6171,-163.5001 611.6171,-170.5001"/>
</g>
<!-- InputFormModule -->
<g id="node10" class="node">
<title>InputFormModule</title>
<polygon fill="#8dd3c7" stroke="#000000" points="143.9356,-122 140.9356,-126 119.9356,-126 116.9356,-122 24.0644,-122 24.0644,-86 143.9356,-86 143.9356,-122"/>
<text text-anchor="middle" x="84" y="-99.8" font-family="Times,serif" font-size="14.00" fill="#000000">InputFormModule</text>
</g>
<!-- InputFormModule&#45;&gt;HeaderModule -->
<g id="edge9" class="edge">
<title>InputFormModule&#45;&gt;HeaderModule</title>
<path fill="none" stroke="#000000" d="M84,-122.2228C84,-142.3652 84,-172 84,-172 84,-172 611.8675,-172 611.8675,-172"/>
<polygon fill="#000000" stroke="#000000" points="611.8675,-175.5001 621.8675,-172 611.8674,-168.5001 611.8675,-175.5001"/>
</g>
</g>
</svg>
