<?xml version="1.0" encoding="UTF-8" standalone="no"?>
<!DOCTYPE svg PUBLIC "-//W3C//DTD SVG 1.1//EN"
 "http://www.w3.org/Graphics/SVG/1.1/DTD/svg11.dtd">
<!-- Generated by graphviz version 2.40.1 (20161225.0304)
 -->
<!-- Title: dependencies Pages: 1 -->
<svg width="504pt" height="211pt"
 viewBox="0.00 0.00 504.00 211.00" xmlns="http://www.w3.org/2000/svg" xmlns:xlink="http://www.w3.org/1999/xlink">
<g id="graph0" class="graph" transform="scale(1 1) rotate(0) translate(4 207)">
<title>dependencies</title>
<polygon fill="#ffffff" stroke="transparent" points="-4,4 -4,-207 500,-207 500,4 -4,4"/>
<text text-anchor="start" x="227.0091" y="-42.4" font-family="sans-serif" font-weight="bold" font-size="14.00" fill="#000000">Legend</text>
<polygon fill="#ffffb3" stroke="transparent" points="14,-10 14,-30 34,-30 34,-10 14,-10"/>
<text text-anchor="start" x="37.629" y="-15.4" font-family="sans-serif" font-size="14.00" fill="#000000"> &#160;Declarations</text>
<polygon fill="#8dd3c7" stroke="transparent" points="127,-10 127,-30 147,-30 147,-10 127,-10"/>
<text text-anchor="start" x="150.7251" y="-15.4" font-family="sans-serif" font-size="14.00" fill="#000000"> &#160;Module</text>
<polygon fill="#80b1d3" stroke="transparent" points="213,-10 213,-30 233,-30 233,-10 213,-10"/>
<text text-anchor="start" x="236.7812" y="-15.4" font-family="sans-serif" font-size="14.00" fill="#000000"> &#160;Bootstrap</text>
<polygon fill="#fdb462" stroke="transparent" points="310,-10 310,-30 330,-30 330,-10 310,-10"/>
<text text-anchor="start" x="333.6732" y="-15.4" font-family="sans-serif" font-size="14.00" fill="#000000"> &#160;Providers</text>
<polygon fill="#fb8072" stroke="transparent" points="406,-10 406,-30 426,-30 426,-10 406,-10"/>
<text text-anchor="start" x="429.7258" y="-15.4" font-family="sans-serif" font-size="14.00" fill="#000000"> &#160;Exports</text>
<g id="clust1" class="cluster">
<title>cluster_ResetPageModule</title>
<polygon fill="none" stroke="#000000" stroke-dasharray="1,5" points="64,-70 64,-195 432,-195 432,-70 64,-70"/>
</g>
<g id="clust2" class="cluster">
<title>cluster_ResetPageModule_declarations</title>
<polygon fill="none" stroke="#000000" points="334,-78 334,-130 424,-130 424,-78 334,-78"/>
</g>
<g id="clust4" class="cluster">
<title>cluster_ResetPageModule_imports</title>
<polygon fill="none" stroke="#000000" points="72,-78 72,-130 326,-130 326,-78 72,-78"/>
</g>
<!-- ResetPage -->
<g id="node1" class="node">
<title>ResetPage</title>
<polygon fill="#ffffb3" stroke="#000000" points="416.3135,-122 341.6865,-122 341.6865,-86 416.3135,-86 416.3135,-122"/>
<text text-anchor="middle" x="379" y="-99.8" font-family="Times,serif" font-size="14.00" fill="#000000">ResetPage</text>
</g>
<!-- ResetPageModule -->
<g id="node2" class="node">
<title>ResetPageModule</title>
<polygon fill="#8dd3c7" stroke="#000000" points="326.8627,-187 323.8627,-191 302.8627,-191 299.8627,-187 209.1373,-187 209.1373,-151 326.8627,-151 326.8627,-187"/>
<text text-anchor="middle" x="268" y="-164.8" font-family="Times,serif" font-size="14.00" fill="#000000">ResetPageModule</text>
</g>
<!-- ResetPage&#45;&gt;ResetPageModule -->
<g id="edge1" class="edge">
<title>ResetPage&#45;&gt;ResetPageModule</title>
<path fill="none" stroke="#000000" d="M341.5991,-104C331.0838,-104 322.4559,-104 322.4559,-104 322.4559,-104 322.4559,-140.8939 322.4559,-140.8939"/>
<polygon fill="#000000" stroke="#000000" points="318.9559,-140.8938 322.4559,-150.8939 325.9559,-140.8939 318.9559,-140.8938"/>
</g>
<!-- HeaderModule -->
<g id="node3" class="node">
<title>HeaderModule</title>
<polygon fill="#8dd3c7" stroke="#000000" points="317.9608,-122 314.9608,-126 293.9608,-126 290.9608,-122 218.0392,-122 218.0392,-86 317.9608,-86 317.9608,-122"/>
<text text-anchor="middle" x="268" y="-99.8" font-family="Times,serif" font-size="14.00" fill="#000000">HeaderModule</text>
</g>
<!-- HeaderModule&#45;&gt;ResetPageModule -->
<g id="edge2" class="edge">
<title>HeaderModule&#45;&gt;ResetPageModule</title>
<path fill="none" stroke="#000000" d="M268,-122.1061C268,-122.1061 268,-140.991 268,-140.991"/>
<polygon fill="#000000" stroke="#000000" points="264.5001,-140.9909 268,-150.991 271.5001,-140.991 264.5001,-140.9909"/>
</g>
<!-- InputFormModule -->
<g id="node4" class="node">
<title>InputFormModule</title>
<polygon fill="#8dd3c7" stroke="#000000" points="199.9356,-122 196.9356,-126 175.9356,-126 172.9356,-122 80.0644,-122 80.0644,-86 199.9356,-86 199.9356,-122"/>
<text text-anchor="middle" x="140" y="-99.8" font-family="Times,serif" font-size="14.00" fill="#000000">InputFormModule</text>
</g>
<!-- InputFormModule&#45;&gt;ResetPageModule -->
<g id="edge3" class="edge">
<title>InputFormModule&#45;&gt;ResetPageModule</title>
<path fill="none" stroke="#000000" d="M200.055,-104C208.0454,-104 213.5442,-104 213.5442,-104 213.5442,-104 213.5442,-140.8939 213.5442,-140.8939"/>
<polygon fill="#000000" stroke="#000000" points="210.0442,-140.8938 213.5442,-150.8939 217.0442,-140.8939 210.0442,-140.8938"/>
</g>
</g>
</svg>
