<?xml version="1.0" encoding="UTF-8" standalone="no"?>
<!DOCTYPE svg PUBLIC "-//W3C//DTD SVG 1.1//EN"
 "http://www.w3.org/Graphics/SVG/1.1/DTD/svg11.dtd">
<!-- Generated by graphviz version 2.40.1 (20161225.0304)
 -->
<!-- Title: dependencies Pages: 1 -->
<svg width="673pt" height="284pt"
 viewBox="0.00 0.00 673.00 284.00" xmlns="http://www.w3.org/2000/svg" xmlns:xlink="http://www.w3.org/1999/xlink">
<g id="graph0" class="graph" transform="scale(1 1) rotate(0) translate(4 280)">
<title>dependencies</title>
<polygon fill="#ffffff" stroke="transparent" points="-4,4 -4,-280 669,-280 669,4 -4,4"/>
<text text-anchor="start" x="311.5091" y="-42.4" font-family="sans-serif" font-weight="bold" font-size="14.00" fill="#000000">Legend</text>
<polygon fill="#ffffb3" stroke="transparent" points="98.5,-10 98.5,-30 118.5,-30 118.5,-10 98.5,-10"/>
<text text-anchor="start" x="122.129" y="-15.4" font-family="sans-serif" font-size="14.00" fill="#000000"> &#160;Declarations</text>
<polygon fill="#8dd3c7" stroke="transparent" points="211.5,-10 211.5,-30 231.5,-30 231.5,-10 211.5,-10"/>
<text text-anchor="start" x="235.2251" y="-15.4" font-family="sans-serif" font-size="14.00" fill="#000000"> &#160;Module</text>
<polygon fill="#80b1d3" stroke="transparent" points="297.5,-10 297.5,-30 317.5,-30 317.5,-10 297.5,-10"/>
<text text-anchor="start" x="321.2812" y="-15.4" font-family="sans-serif" font-size="14.00" fill="#000000"> &#160;Bootstrap</text>
<polygon fill="#fdb462" stroke="transparent" points="394.5,-10 394.5,-30 414.5,-30 414.5,-10 394.5,-10"/>
<text text-anchor="start" x="418.1732" y="-15.4" font-family="sans-serif" font-size="14.00" fill="#000000"> &#160;Providers</text>
<polygon fill="#fb8072" stroke="transparent" points="490.5,-10 490.5,-30 510.5,-30 510.5,-10 490.5,-10"/>
<text text-anchor="start" x="514.2258" y="-15.4" font-family="sans-serif" font-size="14.00" fill="#000000"> &#160;Exports</text>
<g id="clust1" class="cluster">
<title>cluster_AuthModule</title>
<polygon fill="none" stroke="#000000" stroke-dasharray="1,5" points="8,-70 8,-268 657,-268 657,-70 8,-70"/>
</g>
<g id="clust2" class="cluster">
<title>cluster_AuthModule_declarations</title>
<polygon fill="none" stroke="#000000" points="160,-78 160,-130 649,-130 649,-78 160,-78"/>
</g>
<g id="clust6" class="cluster">
<title>cluster_AuthModule_imports</title>
<polygon fill="none" stroke="#000000" points="16,-78 16,-130 152,-130 152,-78 16,-78"/>
</g>
<g id="clust7" class="cluster">
<title>cluster_AuthModule_exports</title>
<polygon fill="none" stroke="#000000" points="82,-208 82,-260 582,-260 582,-208 82,-208"/>
</g>
<!-- ForgotPasswordComponent -->
<g id="node1" class="node">
<title>ForgotPasswordComponent</title>
<polygon fill="#ffffb3" stroke="#000000" points="641.3201,-122 468.6799,-122 468.6799,-86 641.3201,-86 641.3201,-122"/>
<text text-anchor="middle" x="555" y="-99.8" font-family="Times,serif" font-size="14.00" fill="#000000">ForgotPasswordComponent</text>
</g>
<!-- AuthModule -->
<g id="node4" class="node">
<title>AuthModule</title>
<polygon fill="#8dd3c7" stroke="#000000" points="364.5482,-187 361.5482,-191 340.5482,-191 337.5482,-187 277.4518,-187 277.4518,-151 364.5482,-151 364.5482,-187"/>
<text text-anchor="middle" x="321" y="-164.8" font-family="Times,serif" font-size="14.00" fill="#000000">AuthModule</text>
</g>
<!-- ForgotPasswordComponent&#45;&gt;AuthModule -->
<g id="edge1" class="edge">
<title>ForgotPasswordComponent&#45;&gt;AuthModule</title>
<path fill="none" stroke="#000000" d="M521.375,-122.0225C521.375,-139.3734 521.375,-163 521.375,-163 521.375,-163 374.9731,-163 374.9731,-163"/>
<polygon fill="#000000" stroke="#000000" points="374.9732,-159.5001 364.9731,-163 374.9731,-166.5001 374.9732,-159.5001"/>
</g>
<!-- LoginComponent -->
<g id="node2" class="node">
<title>LoginComponent</title>
<polygon fill="#ffffb3" stroke="#000000" points="450.2758,-122 335.7242,-122 335.7242,-86 450.2758,-86 450.2758,-122"/>
<text text-anchor="middle" x="393" y="-99.8" font-family="Times,serif" font-size="14.00" fill="#000000">LoginComponent</text>
</g>
<!-- LoginComponent&#45;&gt;AuthModule -->
<g id="edge2" class="edge">
<title>LoginComponent&#45;&gt;AuthModule</title>
<path fill="none" stroke="#000000" d="M350.1929,-122.1061C350.1929,-122.1061 350.1929,-140.991 350.1929,-140.991"/>
<polygon fill="#000000" stroke="#000000" points="346.6929,-140.9909 350.1929,-150.991 353.6929,-140.991 346.6929,-140.9909"/>
</g>
<!-- RegistrationComponent -->
<g id="node3" class="node">
<title>RegistrationComponent</title>
<polygon fill="#ffffb3" stroke="#000000" points="317.766,-122 168.234,-122 168.234,-86 317.766,-86 317.766,-122"/>
<text text-anchor="middle" x="243" y="-99.8" font-family="Times,serif" font-size="14.00" fill="#000000">RegistrationComponent</text>
</g>
<!-- RegistrationComponent&#45;&gt;AuthModule -->
<g id="edge3" class="edge">
<title>RegistrationComponent&#45;&gt;AuthModule</title>
<path fill="none" stroke="#000000" d="M297.5547,-122.1061C297.5547,-122.1061 297.5547,-140.991 297.5547,-140.991"/>
<polygon fill="#000000" stroke="#000000" points="294.0548,-140.9909 297.5547,-150.991 301.0548,-140.991 294.0548,-140.9909"/>
</g>
<!-- ForgotPasswordComponent  -->
<g id="node6" class="node">
<title>ForgotPasswordComponent </title>
<polygon fill="#fb8072" stroke="#000000" points="573.8199,-252 398.1801,-252 398.1801,-216 573.8199,-216 573.8199,-252"/>
<text text-anchor="middle" x="486" y="-229.8" font-family="Times,serif" font-size="14.00" fill="#000000">ForgotPasswordComponent </text>
</g>
<!-- AuthModule&#45;&gt;ForgotPasswordComponent  -->
<g id="edge5" class="edge">
<title>AuthModule&#45;&gt;ForgotPasswordComponent </title>
<path fill="none" stroke="#000000" stroke-dasharray="5,2" d="M364.7826,-175C392.9204,-175 424.239,-175 424.239,-175 424.239,-175 424.239,-205.9775 424.239,-205.9775"/>
<polygon fill="#000000" stroke="#000000" points="420.739,-205.9774 424.239,-215.9775 427.739,-205.9775 420.739,-205.9774"/>
</g>
<!-- LoginComponent  -->
<g id="node7" class="node">
<title>LoginComponent </title>
<polygon fill="#fb8072" stroke="#000000" points="380.2759,-252 261.7241,-252 261.7241,-216 380.2759,-216 380.2759,-252"/>
<text text-anchor="middle" x="321" y="-229.8" font-family="Times,serif" font-size="14.00" fill="#000000">LoginComponent </text>
</g>
<!-- AuthModule&#45;&gt;LoginComponent  -->
<g id="edge6" class="edge">
<title>AuthModule&#45;&gt;LoginComponent </title>
<path fill="none" stroke="#000000" stroke-dasharray="5,2" d="M321,-187.1061C321,-187.1061 321,-205.991 321,-205.991"/>
<polygon fill="#000000" stroke="#000000" points="317.5001,-205.9909 321,-215.991 324.5001,-205.991 317.5001,-205.9909"/>
</g>
<!-- RegistrationComponent  -->
<g id="node8" class="node">
<title>RegistrationComponent </title>
<polygon fill="#fb8072" stroke="#000000" points="243.766,-252 90.234,-252 90.234,-216 243.766,-216 243.766,-252"/>
<text text-anchor="middle" x="167" y="-229.8" font-family="Times,serif" font-size="14.00" fill="#000000">RegistrationComponent </text>
</g>
<!-- AuthModule&#45;&gt;RegistrationComponent  -->
<g id="edge7" class="edge">
<title>AuthModule&#45;&gt;RegistrationComponent </title>
<path fill="none" stroke="#000000" stroke-dasharray="5,2" d="M277.1478,-175C244.6135,-175 205.875,-175 205.875,-175 205.875,-175 205.875,-205.9775 205.875,-205.9775"/>
<polygon fill="#000000" stroke="#000000" points="202.3751,-205.9774 205.875,-215.9775 209.3751,-205.9775 202.3751,-205.9774"/>
</g>
<!-- InputFormModule -->
<g id="node5" class="node">
<title>InputFormModule</title>
<polygon fill="#8dd3c7" stroke="#000000" points="143.9356,-122 140.9356,-126 119.9356,-126 116.9356,-122 24.0644,-122 24.0644,-86 143.9356,-86 143.9356,-122"/>
<text text-anchor="middle" x="84" y="-99.8" font-family="Times,serif" font-size="14.00" fill="#000000">InputFormModule</text>
</g>
<!-- InputFormModule&#45;&gt;AuthModule -->
<g id="edge4" class="edge">
<title>InputFormModule&#45;&gt;AuthModule</title>
<path fill="none" stroke="#000000" d="M117.0423,-122.0225C117.0423,-139.3734 117.0423,-163 117.0423,-163 117.0423,-163 267.2459,-163 267.2459,-163"/>
<polygon fill="#000000" stroke="#000000" points="267.246,-166.5001 277.2459,-163 267.2459,-159.5001 267.246,-166.5001"/>
</g>
</g>
</svg>
