<?xml version="1.0" encoding="UTF-8" standalone="no"?>
<!DOCTYPE svg PUBLIC "-//W3C//DTD SVG 1.1//EN"
 "http://www.w3.org/Graphics/SVG/1.1/DTD/svg11.dtd">
<!-- Generated by graphviz version 2.40.1 (20161225.0304)
 -->
<!-- Title: dependencies Pages: 1 -->
<svg width="504pt" height="211pt"
 viewBox="0.00 0.00 504.00 211.00" xmlns="http://www.w3.org/2000/svg" xmlns:xlink="http://www.w3.org/1999/xlink">
<g id="graph0" class="graph" transform="scale(1 1) rotate(0) translate(4 207)">
<title>dependencies</title>
<polygon fill="#ffffff" stroke="transparent" points="-4,4 -4,-207 500,-207 500,4 -4,4"/>
<text text-anchor="start" x="227.0091" y="-42.4" font-family="sans-serif" font-weight="bold" font-size="14.00" fill="#000000">Legend</text>
<polygon fill="#ffffb3" stroke="transparent" points="14,-10 14,-30 34,-30 34,-10 14,-10"/>
<text text-anchor="start" x="37.629" y="-15.4" font-family="sans-serif" font-size="14.00" fill="#000000"> &#160;Declarations</text>
<polygon fill="#8dd3c7" stroke="transparent" points="127,-10 127,-30 147,-30 147,-10 127,-10"/>
<text text-anchor="start" x="150.7251" y="-15.4" font-family="sans-serif" font-size="14.00" fill="#000000"> &#160;Module</text>
<polygon fill="#80b1d3" stroke="transparent" points="213,-10 213,-30 233,-30 233,-10 213,-10"/>
<text text-anchor="start" x="236.7812" y="-15.4" font-family="sans-serif" font-size="14.00" fill="#000000"> &#160;Bootstrap</text>
<polygon fill="#fdb462" stroke="transparent" points="310,-10 310,-30 330,-30 330,-10 310,-10"/>
<text text-anchor="start" x="333.6732" y="-15.4" font-family="sans-serif" font-size="14.00" fill="#000000"> &#160;Providers</text>
<polygon fill="#fb8072" stroke="transparent" points="406,-10 406,-30 426,-30 426,-10 406,-10"/>
<text text-anchor="start" x="429.7258" y="-15.4" font-family="sans-serif" font-size="14.00" fill="#000000"> &#160;Exports</text>
<g id="clust1" class="cluster">
<title>cluster_VerifyPageModule</title>
<polygon fill="none" stroke="#000000" stroke-dasharray="1,5" points="77,-70 77,-195 419,-195 419,-70 77,-70"/>
</g>
<g id="clust2" class="cluster">
<title>cluster_VerifyPageModule_declarations</title>
<polygon fill="none" stroke="#000000" points="315,-78 315,-130 411,-130 411,-78 315,-78"/>
</g>
<g id="clust4" class="cluster">
<title>cluster_VerifyPageModule_imports</title>
<polygon fill="none" stroke="#000000" points="85,-78 85,-130 307,-130 307,-78 85,-78"/>
</g>
<!-- VerifyPage -->
<g id="node1" class="node">
<title>VerifyPage</title>
<polygon fill="#ffffb3" stroke="#000000" points="402.7452,-122 323.2548,-122 323.2548,-86 402.7452,-86 402.7452,-122"/>
<text text-anchor="middle" x="363" y="-99.8" font-family="Times,serif" font-size="14.00" fill="#000000">VerifyPage</text>
</g>
<!-- VerifyPageModule -->
<g id="node2" class="node">
<title>VerifyPageModule</title>
<polygon fill="#8dd3c7" stroke="#000000" points="316.795,-187 313.795,-191 292.795,-191 289.795,-187 193.205,-187 193.205,-151 316.795,-151 316.795,-187"/>
<text text-anchor="middle" x="255" y="-164.8" font-family="Times,serif" font-size="14.00" fill="#000000">VerifyPageModule</text>
</g>
<!-- VerifyPage&#45;&gt;VerifyPageModule -->
<g id="edge1" class="edge">
<title>VerifyPage&#45;&gt;VerifyPageModule</title>
<path fill="none" stroke="#000000" d="M323.1116,-104C314.393,-104 307.7104,-104 307.7104,-104 307.7104,-104 307.7104,-140.8939 307.7104,-140.8939"/>
<polygon fill="#000000" stroke="#000000" points="304.2105,-140.8938 307.7104,-150.8939 311.2105,-140.8939 304.2105,-140.8938"/>
</g>
<!-- AuthModule -->
<g id="node3" class="node">
<title>AuthModule</title>
<polygon fill="#8dd3c7" stroke="#000000" points="298.5482,-122 295.5482,-126 274.5482,-126 271.5482,-122 211.4518,-122 211.4518,-86 298.5482,-86 298.5482,-122"/>
<text text-anchor="middle" x="255" y="-99.8" font-family="Times,serif" font-size="14.00" fill="#000000">AuthModule</text>
</g>
<!-- AuthModule&#45;&gt;VerifyPageModule -->
<g id="edge2" class="edge">
<title>AuthModule&#45;&gt;VerifyPageModule</title>
<path fill="none" stroke="#000000" d="M255,-122.1061C255,-122.1061 255,-140.991 255,-140.991"/>
<polygon fill="#000000" stroke="#000000" points="251.5001,-140.9909 255,-150.991 258.5001,-140.991 251.5001,-140.9909"/>
</g>
<!-- HeaderModule -->
<g id="node4" class="node">
<title>HeaderModule</title>
<polygon fill="#8dd3c7" stroke="#000000" points="192.9608,-122 189.9608,-126 168.9608,-126 165.9608,-122 93.0392,-122 93.0392,-86 192.9608,-86 192.9608,-122"/>
<text text-anchor="middle" x="143" y="-99.8" font-family="Times,serif" font-size="14.00" fill="#000000">HeaderModule</text>
</g>
<!-- HeaderModule&#45;&gt;VerifyPageModule -->
<g id="edge3" class="edge">
<title>HeaderModule&#45;&gt;VerifyPageModule</title>
<path fill="none" stroke="#000000" d="M193.0256,-104C198.584,-104 202.2896,-104 202.2896,-104 202.2896,-104 202.2896,-140.8939 202.2896,-140.8939"/>
<polygon fill="#000000" stroke="#000000" points="198.7897,-140.8938 202.2896,-150.8939 205.7897,-140.8939 198.7897,-140.8938"/>
</g>
</g>
</svg>
