<?xml version="1.0" encoding="UTF-8" standalone="no"?>
<!DOCTYPE svg PUBLIC "-//W3C//DTD SVG 1.1//EN"
 "http://www.w3.org/Graphics/SVG/1.1/DTD/svg11.dtd">
<!-- Generated by graphviz version 2.40.1 (20161225.0304)
 -->
<!-- Title: dependencies Pages: 1 -->
<svg width="504pt" height="211pt"
 viewBox="0.00 0.00 504.00 211.00" xmlns="http://www.w3.org/2000/svg" xmlns:xlink="http://www.w3.org/1999/xlink">
<g id="graph0" class="graph" transform="scale(1 1) rotate(0) translate(4 207)">
<title>dependencies</title>
<polygon fill="#ffffff" stroke="transparent" points="-4,4 -4,-207 500,-207 500,4 -4,4"/>
<text text-anchor="start" x="227.0091" y="-42.4" font-family="sans-serif" font-weight="bold" font-size="14.00" fill="#000000">Legend</text>
<polygon fill="#ffffb3" stroke="transparent" points="14,-10 14,-30 34,-30 34,-10 14,-10"/>
<text text-anchor="start" x="37.629" y="-15.4" font-family="sans-serif" font-size="14.00" fill="#000000"> &#160;Declarations</text>
<polygon fill="#8dd3c7" stroke="transparent" points="127,-10 127,-30 147,-30 147,-10 127,-10"/>
<text text-anchor="start" x="150.7251" y="-15.4" font-family="sans-serif" font-size="14.00" fill="#000000"> &#160;Module</text>
<polygon fill="#80b1d3" stroke="transparent" points="213,-10 213,-30 233,-30 233,-10 213,-10"/>
<text text-anchor="start" x="236.7812" y="-15.4" font-family="sans-serif" font-size="14.00" fill="#000000"> &#160;Bootstrap</text>
<polygon fill="#fdb462" stroke="transparent" points="310,-10 310,-30 330,-30 330,-10 310,-10"/>
<text text-anchor="start" x="333.6732" y="-15.4" font-family="sans-serif" font-size="14.00" fill="#000000"> &#160;Providers</text>
<polygon fill="#fb8072" stroke="transparent" points="406,-10 406,-30 426,-30 426,-10 406,-10"/>
<text text-anchor="start" x="429.7258" y="-15.4" font-family="sans-serif" font-size="14.00" fill="#000000"> &#160;Exports</text>
<g id="clust1" class="cluster">
<title>cluster_ProductDetailsPageModule</title>
<polygon fill="none" stroke="#000000" stroke-dasharray="1,5" points="107,-70 107,-195 389,-195 389,-70 107,-70"/>
</g>
<g id="clust2" class="cluster">
<title>cluster_ProductDetailsPageModule_declarations</title>
<polygon fill="none" stroke="#000000" points="239,-78 239,-130 381,-130 381,-78 239,-78"/>
</g>
<g id="clust4" class="cluster">
<title>cluster_ProductDetailsPageModule_imports</title>
<polygon fill="none" stroke="#000000" points="115,-78 115,-130 231,-130 231,-78 115,-78"/>
</g>
<!-- ProductDetailsPage -->
<g id="node1" class="node">
<title>ProductDetailsPage</title>
<polygon fill="#ffffb3" stroke="#000000" points="373.4131,-122 246.5869,-122 246.5869,-86 373.4131,-86 373.4131,-122"/>
<text text-anchor="middle" x="310" y="-99.8" font-family="Times,serif" font-size="14.00" fill="#000000">ProductDetailsPage</text>
</g>
<!-- ProductDetailsPageModule -->
<g id="node2" class="node">
<title>ProductDetailsPageModule</title>
<polygon fill="#8dd3c7" stroke="#000000" points="332.9622,-187 329.9622,-191 308.9622,-191 305.9622,-187 163.0378,-187 163.0378,-151 332.9622,-151 332.9622,-187"/>
<text text-anchor="middle" x="248" y="-164.8" font-family="Times,serif" font-size="14.00" fill="#000000">ProductDetailsPageModule</text>
</g>
<!-- ProductDetailsPage&#45;&gt;ProductDetailsPageModule -->
<g id="edge1" class="edge">
<title>ProductDetailsPage&#45;&gt;ProductDetailsPageModule</title>
<path fill="none" stroke="#000000" d="M289.8875,-122.1061C289.8875,-122.1061 289.8875,-140.991 289.8875,-140.991"/>
<polygon fill="#000000" stroke="#000000" points="286.3875,-140.9909 289.8875,-150.991 293.3875,-140.991 286.3875,-140.9909"/>
</g>
<!-- HeaderModule -->
<g id="node3" class="node">
<title>HeaderModule</title>
<polygon fill="#8dd3c7" stroke="#000000" points="222.9608,-122 219.9608,-126 198.9608,-126 195.9608,-122 123.0392,-122 123.0392,-86 222.9608,-86 222.9608,-122"/>
<text text-anchor="middle" x="173" y="-99.8" font-family="Times,serif" font-size="14.00" fill="#000000">HeaderModule</text>
</g>
<!-- HeaderModule&#45;&gt;ProductDetailsPageModule -->
<g id="edge2" class="edge">
<title>HeaderModule&#45;&gt;ProductDetailsPageModule</title>
<path fill="none" stroke="#000000" d="M192.9996,-122.1061C192.9996,-122.1061 192.9996,-140.991 192.9996,-140.991"/>
<polygon fill="#000000" stroke="#000000" points="189.4997,-140.9909 192.9996,-150.991 196.4997,-140.991 189.4997,-140.9909"/>
</g>
</g>
</svg>
