<?xml version="1.0" encoding="UTF-8" standalone="no"?>
<!DOCTYPE svg PUBLIC "-//W3C//DTD SVG 1.1//EN"
 "http://www.w3.org/Graphics/SVG/1.1/DTD/svg11.dtd">
<!-- Generated by graphviz version 2.40.1 (20161225.0304)
 -->
<!-- Title: dependencies Pages: 1 -->
<svg width="1046pt" height="211pt"
 viewBox="0.00 0.00 1046.00 211.00" xmlns="http://www.w3.org/2000/svg" xmlns:xlink="http://www.w3.org/1999/xlink">
<g id="graph0" class="graph" transform="scale(1 1) rotate(0) translate(4 207)">
<title>dependencies</title>
<polygon fill="#ffffff" stroke="transparent" points="-4,4 -4,-207 1042,-207 1042,4 -4,4"/>
<text text-anchor="start" x="498.0091" y="-42.4" font-family="sans-serif" font-weight="bold" font-size="14.00" fill="#000000">Legend</text>
<polygon fill="#ffffb3" stroke="transparent" points="285,-10 285,-30 305,-30 305,-10 285,-10"/>
<text text-anchor="start" x="308.629" y="-15.4" font-family="sans-serif" font-size="14.00" fill="#000000"> &#160;Declarations</text>
<polygon fill="#8dd3c7" stroke="transparent" points="398,-10 398,-30 418,-30 418,-10 398,-10"/>
<text text-anchor="start" x="421.7251" y="-15.4" font-family="sans-serif" font-size="14.00" fill="#000000"> &#160;Module</text>
<polygon fill="#80b1d3" stroke="transparent" points="484,-10 484,-30 504,-30 504,-10 484,-10"/>
<text text-anchor="start" x="507.7812" y="-15.4" font-family="sans-serif" font-size="14.00" fill="#000000"> &#160;Bootstrap</text>
<polygon fill="#fdb462" stroke="transparent" points="581,-10 581,-30 601,-30 601,-10 581,-10"/>
<text text-anchor="start" x="604.6732" y="-15.4" font-family="sans-serif" font-size="14.00" fill="#000000"> &#160;Providers</text>
<polygon fill="#fb8072" stroke="transparent" points="677,-10 677,-30 697,-30 697,-10 677,-10"/>
<text text-anchor="start" x="700.7258" y="-15.4" font-family="sans-serif" font-size="14.00" fill="#000000"> &#160;Exports</text>
<g id="clust1" class="cluster">
<title>cluster_AdminPageModule</title>
<polygon fill="none" stroke="#000000" stroke-dasharray="1,5" points="8,-70 8,-195 1030,-195 1030,-70 8,-70"/>
</g>
<g id="clust2" class="cluster">
<title>cluster_AdminPageModule_declarations</title>
<polygon fill="none" stroke="#000000" points="394,-78 394,-130 1022,-130 1022,-78 394,-78"/>
</g>
<g id="clust7" class="cluster">
<title>cluster_AdminPageModule_imports</title>
<polygon fill="none" stroke="#000000" points="16,-78 16,-130 386,-130 386,-78 16,-78"/>
</g>
<!-- AddCategoryComponent -->
<g id="node1" class="node">
<title>AddCategoryComponent</title>
<polygon fill="#ffffb3" stroke="#000000" points="1014.2562,-122 857.7438,-122 857.7438,-86 1014.2562,-86 1014.2562,-122"/>
<text text-anchor="middle" x="936" y="-99.8" font-family="Times,serif" font-size="14.00" fill="#000000">AddCategoryComponent</text>
</g>
<!-- AdminPageModule -->
<g id="node5" class="node">
<title>AdminPageModule</title>
<polygon fill="#8dd3c7" stroke="#000000" points="543.6499,-187 540.6499,-191 519.6499,-191 516.6499,-187 418.3501,-187 418.3501,-151 543.6499,-151 543.6499,-187"/>
<text text-anchor="middle" x="481" y="-164.8" font-family="Times,serif" font-size="14.00" fill="#000000">AdminPageModule</text>
</g>
<!-- AddCategoryComponent&#45;&gt;AdminPageModule -->
<g id="edge1" class="edge">
<title>AddCategoryComponent&#45;&gt;AdminPageModule</title>
<path fill="none" stroke="#000000" d="M936,-122.2921C936,-144.2057 936,-178 936,-178 936,-178 553.7881,-178 553.7881,-178"/>
<polygon fill="#000000" stroke="#000000" points="553.7881,-174.5001 543.7881,-178 553.7881,-181.5001 553.7881,-174.5001"/>
</g>
<!-- AdminPage -->
<g id="node2" class="node">
<title>AdminPage</title>
<polygon fill="#ffffb3" stroke="#000000" points="840.0997,-122 757.9003,-122 757.9003,-86 840.0997,-86 840.0997,-122"/>
<text text-anchor="middle" x="799" y="-99.8" font-family="Times,serif" font-size="14.00" fill="#000000">AdminPage</text>
</g>
<!-- AdminPage&#45;&gt;AdminPageModule -->
<g id="edge2" class="edge">
<title>AdminPage&#45;&gt;AdminPageModule</title>
<path fill="none" stroke="#000000" d="M799,-122.1061C799,-141.3391 799,-169 799,-169 799,-169 553.8266,-169 553.8266,-169"/>
<polygon fill="#000000" stroke="#000000" points="553.8266,-165.5001 543.8266,-169 553.8265,-172.5001 553.8266,-165.5001"/>
</g>
<!-- ManageOffersComponent -->
<g id="node3" class="node">
<title>ManageOffersComponent</title>
<polygon fill="#ffffb3" stroke="#000000" points="740.1685,-122 577.8315,-122 577.8315,-86 740.1685,-86 740.1685,-122"/>
<text text-anchor="middle" x="659" y="-99.8" font-family="Times,serif" font-size="14.00" fill="#000000">ManageOffersComponent</text>
</g>
<!-- ManageOffersComponent&#45;&gt;AdminPageModule -->
<g id="edge3" class="edge">
<title>ManageOffersComponent&#45;&gt;AdminPageModule</title>
<path fill="none" stroke="#000000" d="M659,-122.027C659,-138.3976 659,-160 659,-160 659,-160 553.7561,-160 553.7561,-160"/>
<polygon fill="#000000" stroke="#000000" points="553.7562,-156.5001 543.7561,-160 553.7561,-163.5001 553.7562,-156.5001"/>
</g>
<!-- ManageUsersComponent -->
<g id="node4" class="node">
<title>ManageUsersComponent</title>
<polygon fill="#ffffb3" stroke="#000000" points="560.2921,-122 401.7079,-122 401.7079,-86 560.2921,-86 560.2921,-122"/>
<text text-anchor="middle" x="481" y="-99.8" font-family="Times,serif" font-size="14.00" fill="#000000">ManageUsersComponent</text>
</g>
<!-- ManageUsersComponent&#45;&gt;AdminPageModule -->
<g id="edge4" class="edge">
<title>ManageUsersComponent&#45;&gt;AdminPageModule</title>
<path fill="none" stroke="#000000" d="M481,-122.1061C481,-122.1061 481,-140.991 481,-140.991"/>
<polygon fill="#000000" stroke="#000000" points="477.5001,-140.9909 481,-150.991 484.5001,-140.991 477.5001,-140.9909"/>
</g>
<!-- HeaderModule -->
<g id="node6" class="node">
<title>HeaderModule</title>
<polygon fill="#8dd3c7" stroke="#000000" points="377.9608,-122 374.9608,-126 353.9608,-126 350.9608,-122 278.0392,-122 278.0392,-86 377.9608,-86 377.9608,-122"/>
<text text-anchor="middle" x="328" y="-99.8" font-family="Times,serif" font-size="14.00" fill="#000000">HeaderModule</text>
</g>
<!-- HeaderModule&#45;&gt;AdminPageModule -->
<g id="edge5" class="edge">
<title>HeaderModule&#45;&gt;AdminPageModule</title>
<path fill="none" stroke="#000000" d="M328,-122.027C328,-138.3976 328,-160 328,-160 328,-160 408.3276,-160 408.3276,-160"/>
<polygon fill="#000000" stroke="#000000" points="408.3276,-163.5001 418.3276,-160 408.3276,-156.5001 408.3276,-163.5001"/>
</g>
<!-- InputFormModule -->
<g id="node7" class="node">
<title>InputFormModule</title>
<polygon fill="#8dd3c7" stroke="#000000" points="259.9356,-122 256.9356,-126 235.9356,-126 232.9356,-122 140.0644,-122 140.0644,-86 259.9356,-86 259.9356,-122"/>
<text text-anchor="middle" x="200" y="-99.8" font-family="Times,serif" font-size="14.00" fill="#000000">InputFormModule</text>
</g>
<!-- InputFormModule&#45;&gt;AdminPageModule -->
<g id="edge6" class="edge">
<title>InputFormModule&#45;&gt;AdminPageModule</title>
<path fill="none" stroke="#000000" d="M200,-122.1061C200,-141.3391 200,-169 200,-169 200,-169 408.2879,-169 408.2879,-169"/>
<polygon fill="#000000" stroke="#000000" points="408.2879,-172.5001 418.2879,-169 408.2878,-165.5001 408.2879,-172.5001"/>
</g>
<!-- SharedModule -->
<g id="node8" class="node">
<title>SharedModule</title>
<polygon fill="#8dd3c7" stroke="#000000" points="122.4231,-122 119.4231,-126 98.4231,-126 95.4231,-122 23.5769,-122 23.5769,-86 122.4231,-86 122.4231,-122"/>
<text text-anchor="middle" x="73" y="-99.8" font-family="Times,serif" font-size="14.00" fill="#000000">SharedModule</text>
</g>
<!-- SharedModule&#45;&gt;AdminPageModule -->
<g id="edge7" class="edge">
<title>SharedModule&#45;&gt;AdminPageModule</title>
<path fill="none" stroke="#000000" d="M73,-122.2921C73,-144.2057 73,-178 73,-178 73,-178 408.1441,-178 408.1441,-178"/>
<polygon fill="#000000" stroke="#000000" points="408.1442,-181.5001 418.1441,-178 408.1441,-174.5001 408.1442,-181.5001"/>
</g>
</g>
</svg>
